<?xml version="1.0" encoding="UTF-8" standalone="no"?>
<!DOCTYPE svg PUBLIC "-//W3C//DTD SVG 1.1//EN" "http://www.w3.org/Graphics/SVG/1.1/DTD/svg11.dtd">
<svg xmlns="http://www.w3.org/2000/svg" version="1.1" viewBox="0 0 481 519">
<g stroke-width="2.00" fill="none" stroke-linecap="butt">
<path stroke="#f65947" vector-effect="non-scaling-stroke" d="
  M 253.13 58.24
  Q 252.30 59.20 252.26 60.62
  Q 252.24 61.10 251.88 60.78
  L 249.37 58.50
  A 0.67 0.67 0.0 0 0 248.56 58.44
  Q 246.66 59.70 244.42 58.95
  A 1.12 1.12 0.0 0 0 243.46 59.07
  Q 241.57 60.28 239.42 60.79
  C 236.76 61.41 235.02 59.60 231.94 61.27
  A 0.83 0.82 47.5 0 1 231.10 61.23
  C 229.61 60.20 228.25 59.48 226.31 59.58
  C 224.44 59.67 220.27 60.42 218.72 59.55
  A 0.52 0.52 0.0 0 0 218.01 59.76
  L 217.83 60.08
  Q 217.42 60.83 217.22 60.00
  L 216.69 57.75
  Q 216.56 57.19 216.52 57.76
  L 216.21 62.22
  Q 216.15 63.07 216.03 62.23
  L 215.54 58.75"
/>
<path stroke="#e46080" vector-effect="non-scaling-stroke" d="
  M 254.46 78.14
  L 254.04 107.75"
/>
<path stroke="#ce678d" vector-effect="non-scaling-stroke" d="
  M 218.04 109.58
  C 216.70 104.57 214.48 99.62 214.12 94.63
  Q 213.61 87.57 214.46 80.50"
/>
<path stroke="#e16fb8" vector-effect="non-scaling-stroke" d="
  M 351.25 113.96
  L 349.83 115.57
  A 0.57 0.56 -46.2 0 0 349.84 116.33
  Q 350.35 116.87 351.14 116.96
  A 1.53 1.49 -18.3 0 1 351.98 117.37
  C 353.36 118.74 352.73 120.61 355.47 120.57
  A 1.71 1.67 60.6 0 1 356.43 120.85
  Q 362.61 124.97 367.87 130.22
  A 1.12 1.10 63.5 0 0 368.80 130.54
  Q 371.89 130.16 373.59 132.60
  A 1.08 1.06 39.4 0 1 373.70 133.63
  Q 372.87 135.57 374.61 136.38
  A 1.38 1.37 46.4 0 0 375.70 136.41
  Q 377.27 135.76 377.78 137.21
  A 1.64 1.64 0.0 0 0 378.40 138.01
  Q 381.26 139.90 384.16 141.68
  C 385.84 142.71 388.15 142.86 389.70 144.50
  Q 391.56 146.47 392.24 146.94
  Q 395.42 149.13 398.15 151.85
  A 1.50 1.43 -17.3 0 0 398.98 152.26
  C 401.88 152.65 405.84 157.98 407.58 160.22
  C 408.52 161.45 409.58 161.92 410.81 162.77
  C 412.36 163.83 413.11 165.76 415.29 166.58
  A 1.71 1.68 81.8 0 1 416.10 167.20
  Q 417.10 168.63 418.86 168.71
  A 0.96 0.94 -13.9 0 1 419.64 169.17
  L 422.14 173.25
  A 1.22 1.20 -9.0 0 0 422.94 173.82
  C 426.18 174.51 427.83 178.32 429.43 181.40
  A 1.44 1.38 87.5 0 0 430.11 182.05
  Q 433.36 183.49 435.78 186.31"
/>
<path stroke="#a351a5" vector-effect="non-scaling-stroke" d="
  M 435.78 186.31
  L 412.75 199.21"
/>
<path stroke="#9853a9" vector-effect="non-scaling-stroke" d="
  M 412.75 199.21
  L 370.25 223.21"
/>
<path stroke="#8959b2" vector-effect="non-scaling-stroke" d="
  M 370.25 223.21
  L 365.04 226.00"
/>
<path stroke="#c377c8" vector-effect="non-scaling-stroke" d="
  M 365.04 226.00
  C 365.01 224.97 365.34 224.01 365.01 223.03
  Q 362.16 214.50 355.06 208.85
  A 1.47 1.45 12.5 0 1 354.55 208.06
  C 353.50 204.08 350.91 203.69 348.71 201.09
  Q 345.16 196.88 340.60 193.76
  A 1.14 1.11 12.9 0 1 340.13 193.03
  Q 339.61 190.22 337.04 189.45
  A 0.10 0.06 -51.8 0 1 337.06 189.31
  L 337.30 189.08
  Q 337.80 188.57 337.17 188.90
  L 336.74 189.13
  A 0.72 0.71 62.5 0 1 335.78 188.82
  Q 335.45 188.15 335.71 187.50"
/>
<path stroke="#a08adc" vector-effect="non-scaling-stroke" d="
  M 171.64 123.26
  Q 170.06 122.25 168.28 120.23
  Q 164.64 116.13 162.97 114.03
  A 1.75 1.71 80.5 0 0 162.19 113.46
  C 160.55 112.86 157.29 108.58 155.96 107.33
  A 0.62 0.62 0.0 0 1 155.88 106.52
  L 156.36 105.82
  Q 156.87 105.08 155.98 105.24
  L 154.35 105.54
  Q 152.81 105.82 154.19 105.07
  L 155.05 104.61
  A 0.46 0.46 0.0 0 0 155.10 103.84
  L 154.25 103.21"
/>
<path stroke="#869de4" vector-effect="non-scaling-stroke" d="
  M 122.75 155.79
  Q 121.90 154.55 122.47 153.30
  A 0.66 0.65 -53.3 0 0 122.37 152.59
  L 118.03 147.62
  Q 117.69 147.23 117.22 147.05
  C 112.55 145.21 106.90 138.38 103.99 134.32
  A 1.40 1.36 -11.4 0 0 103.15 133.78
  Q 100.60 133.24 100.15 130.50
  A 0.89 0.87 8.3 0 0 99.64 129.83
  C 98.33 129.22 98.03 127.79 97.26 127.05
  Q 96.20 126.04 94.96 125.25"
/>
<path stroke="#ab51a2" vector-effect="non-scaling-stroke" d="
  M 479.29 161.50
  Q 457.96 174.56 435.78 186.31"
/>
<path stroke="#869de4" vector-effect="non-scaling-stroke" d="
  M 230.50 230.71
  C 229.41 233.17 231.15 235.02 230.33 237.77
  A 0.63 0.62 -65.7 0 0 230.59 238.47
  L 234.06 240.65
  A 1.40 1.38 6.1 0 1 234.58 241.29
  L 235.37 243.32
  A 1.44 1.43 1.8 0 0 236.09 244.08
  Q 238.39 245.14 237.23 247.29
  A 0.55 0.54 25.3 0 0 237.51 248.05
  Q 240.16 249.14 240.90 251.86
  A 1.62 1.60 -78.8 0 0 241.46 252.71
  C 243.79 254.54 246.20 255.68 245.17 259.34
  A 1.22 1.21 -64.8 0 0 245.64 260.66
  Q 250.40 264.02 253.35 269.13
  A 1.45 1.45 0.0 0 1 253.53 270.03
  L 253.30 272.03
  A 0.68 0.67 -78.4 0 0 253.78 272.76
  Q 256.30 273.51 256.56 276.17
  Q 256.61 276.65 256.83 277.06
  Q 259.07 281.24 259.04 286.00"
/>
<path stroke="#5873c7" vector-effect="non-scaling-stroke" d="
  M 259.04 286.00
  L 237.09 298.30"
/>
<path stroke="#62abec" vector-effect="non-scaling-stroke" d="
  M 237.09 298.30
  Q 233.99 297.76 229.19 294.81
  Q 193.15 272.72 125.04 233.00"
/>
<path stroke="#67b4ea" vector-effect="non-scaling-stroke" d="
  M 125.04 233.00
  L 118.52 229.03"
/>
<path stroke="#74abe6" vector-effect="non-scaling-stroke" d="
  M 118.52 229.03
  Q 117.07 223.14 112.93 218.87
  Q 111.44 217.34 110.76 215.56
  C 108.84 210.63 106.36 205.61 101.21 203.80
  A 1.02 0.99 0.3 0 1 100.61 203.21
  Q 99.30 199.68 96.40 197.31
  A 1.07 1.06 20.2 0 1 96.00 196.46
  L 96.01 193.98
  A 1.10 1.07 20.6 0 0 95.62 193.15
  C 91.54 189.66 88.62 185.60 84.95 181.77
  C 82.69 179.42 81.35 176.74 78.42 175.03
  Q 75.64 173.42 73.28 171.18
  A 1.74 1.71 15.2 0 1 72.79 170.34
  C 71.76 166.29 70.87 163.45 66.66 161.89
  A 1.04 1.04 0.0 0 1 66.00 161.15
  Q 65.46 158.92 63.66 157.65
  A 2.15 2.13 -85.3 0 1 62.97 156.83
  Q 61.51 153.62 58.88 151.27
  A 1.13 1.09 -68.2 0 1 58.52 150.38
  Q 58.74 146.29 55.04 144.86
  A 0.61 0.61 0.0 0 1 54.66 144.15
  L 55.48 140.80
  Q 55.66 140.05 55.17 140.65
  L 55.00 140.86
  A 0.34 0.34 0.0 0 1 54.46 140.85
  L 54.00 140.21"
/>
<path stroke="#63bbeb" vector-effect="non-scaling-stroke" d="
  M 118.52 229.03
  L 74.29 203.25"
/>
<path stroke="#65c1ec" vector-effect="non-scaling-stroke" d="
  M 74.29 203.25
  C 50.77 189.24 26.93 175.85 3.78 161.23
  A 0.76 0.75 20.2 0 1 3.44 160.50
  Q 3.60 159.25 1.64 158.80"
/>
<path stroke="#58caf0" vector-effect="non-scaling-stroke" d="
  M 74.29 203.25
  Q 72.56 206.15 69.51 207.75
  A 1.30 1.29 -7.1 0 0 68.87 208.57
  L 67.96 212.35
  A 0.85 0.83 -4.1 0 1 67.43 212.95
  Q 62.87 214.72 59.86 218.48
  C 58.29 220.44 58.35 223.13 55.71 225.01
  A 0.97 0.96 73.2 0 0 55.30 225.78
  C 55.15 233.59 44.24 234.12 44.71 238.73
  A 1.35 1.31 61.3 0 1 44.45 239.66
  Q 43.84 240.46 42.85 240.51
  A 1.51 1.48 23.3 0 0 42.00 240.84
  Q 40.25 242.21 40.97 244.25
  A 0.82 0.81 61.5 0 1 40.70 245.17
  L 36.51 248.42
  A 0.76 0.76 0.0 0 0 36.30 249.36
  L 36.58 249.94
  Q 36.87 250.53 36.31 250.18
  L 36.09 250.04
  A 0.50 0.50 0.0 0 0 35.52 250.08
  Q 35.21 250.34 35.25 250.71"
/>
<path stroke="#45a2c8" vector-effect="non-scaling-stroke" d="
  M 35.25 250.71
  L 17.28 239.14
  A 0.59 0.59 0.0 0 1 17.03 238.83
  L 16.94 238.59
  A 0.46 0.45 -12.9 0 0 16.46 238.29
  Q 16.20 238.32 16.00 238.54"
/>
<path stroke="#4f3491" vector-effect="non-scaling-stroke" d="
  M 458.86 246.87
  Q 455.17 247.55 452.00 250.04"
/>
<path stroke="#623593" vector-effect="non-scaling-stroke" d="
  M 452.00 250.04
  Q 450.64 249.62 449.82 250.56
  Q 449.56 250.86 449.20 251.03
  L 446.79 252.16
  A 0.56 0.56 0.0 0 1 446.12 252.00
  Q 445.53 251.24 445.73 250.23
  A 1.47 1.47 0.0 0 0 445.61 249.29
  C 443.94 245.92 443.26 242.11 441.30 239.19
  Q 438.96 235.72 436.00 232.79
  C 433.20 230.01 432.01 226.07 429.83 222.78
  C 428.08 220.12 425.01 218.82 422.99 215.92
  Q 422.37 215.04 421.44 214.50
  Q 419.99 213.66 420.25 212.07
  A 1.05 1.05 0.0 0 0 419.95 211.13
  Q 416.79 207.95 415.91 203.53
  A 1.48 1.44 12.9 0 0 415.33 202.63
  L 413.14 201.05
  A 0.87 0.87 0.0 0 1 412.77 200.34
  L 412.75 199.21"
/>
<path stroke="#7361bf" vector-effect="non-scaling-stroke" d="
  M 365.04 226.00
  L 283.04 272.50"
/>
<path stroke="#a08adc" vector-effect="non-scaling-stroke" d="
  M 283.04 272.50
  Q 282.78 272.32 282.49 272.43
  Q 282.17 272.56 282.22 272.21
  Q 282.61 269.78 281.14 268.03
  C 278.87 265.34 278.24 263.71 277.20 260.70
  A 1.57 1.55 -81.6 0 0 276.64 259.94
  C 274.71 258.52 270.96 255.62 270.36 253.25
  Q 270.24 252.77 269.91 252.40
  C 266.90 249.10 265.62 244.49 262.17 241.97
  Q 261.80 241.70 261.61 241.29
  Q 259.91 237.68 256.75 235.32
  A 0.65 0.64 -70.5 0 1 256.50 234.79
  L 256.51 234.51
  A 0.59 0.59 0.0 0 0 256.13 233.93
  L 253.94 233.14
  A 1.41 1.40 -42.9 0 0 253.09 233.11
  L 251.62 233.50
  A 0.65 0.64 71.9 0 1 250.84 233.10
  L 250.25 231.54"
/>
<path stroke="#443695" vector-effect="non-scaling-stroke" d="
  M 452.00 250.04
  L 403.54 279.75"
/>
<path stroke="#483da0" vector-effect="non-scaling-stroke" d="
  M 403.54 279.75
  L 404.37 278.45
  A 0.89 0.88 50.1 0 0 404.44 277.63
  Q 401.90 271.43 401.07 270.19
  C 395.21 261.43 391.15 253.73 384.03 243.72
  A 1.62 1.62 0.0 0 0 383.20 243.10
  Q 380.46 242.20 381.24 239.25
  A 0.78 0.77 29.8 0 0 381.03 238.49
  L 377.81 235.48
  Q 377.46 235.15 377.29 234.70
  L 375.15 229.16
  A 1.27 1.24 -0.8 0 0 374.38 228.43
  Q 372.16 227.67 371.83 225.35
  A 0.71 0.69 86.4 0 0 371.17 224.75
  L 370.07 224.71
  Q 369.29 224.68 370.14 224.04
  Q 370.58 223.70 370.25 223.21"
/>
<path stroke="#51bbf1" vector-effect="non-scaling-stroke" d="
  M 125.04 233.00
  C 123.90 235.13 122.40 236.61 121.11 238.99
  C 120.19 240.67 118.83 241.24 118.03 242.94
  C 116.04 247.17 115.58 250.35 110.55 251.82
  A 1.31 1.30 6.2 0 0 109.77 252.44
  L 107.24 257.11
  A 1.28 1.27 -84.9 0 1 106.52 257.72
  C 102.15 259.15 101.63 261.82 99.02 264.96
  Q 97.90 266.30 97.24 267.96
  A 1.88 1.81 82.3 0 1 96.69 268.71
  Q 95.52 269.62 95.26 273.06
  A 0.13 0.13 0.0 0 1 95.20 273.15
  Q 93.94 273.80 92.87 272.98
  A 0.72 0.70 41.9 0 0 91.96 273.02
  Q 88.12 276.59 85.21 280.98
  Q 85.08 281.18 84.76 281.30
  Q 84.46 281.40 84.75 281.54
  Q 85.31 281.82 85.21 282.50"
/>
<path stroke="#439cc7" vector-effect="non-scaling-stroke" d="
  M 85.21 282.50
  L 35.25 250.71"
/>
<path stroke="#353c9e" vector-effect="non-scaling-stroke" d="
  M 403.54 279.75
  C 387.31 289.93 370.77 299.68 354.59 309.87
  C 318.75 332.43 282.68 354.95 245.51 375.27
  Q 240.23 378.16 235.54 378.25"
/>
<path stroke="#3657ac" vector-effect="non-scaling-stroke" d="
  M 235.54 378.25
  L 235.75 376.96"
/>
<path stroke="#427bce" vector-effect="non-scaling-stroke" d="
  M 235.75 376.96
  C 236.36 377.01 236.69 376.81 236.70 376.16
  Q 237.55 337.22 237.09 298.30"
/>
<path stroke="#666dc6" vector-effect="non-scaling-stroke" d="
  M 259.04 286.00
  L 283.04 272.50"
/>
<path stroke="#3f8ed1" vector-effect="non-scaling-stroke" d="
  M 235.75 376.96
  L 153.50 325.71"
/>
<path stroke="#3e93c9" vector-effect="non-scaling-stroke" d="
  M 153.50 325.71
  L 85.21 282.50"
/>
<path stroke="#326fa7" vector-effect="non-scaling-stroke" d="
  M 153.50 325.71
  L 153.09 325.75
  Q 152.69 325.79 152.97 326.08
  L 153.17 326.29
  Q 154.45 327.61 152.85 326.70
  L 152.14 326.30
  A 0.32 0.32 0.0 0 0 151.67 326.47
  L 151.34 327.39
  A 1.14 1.13 2.4 0 1 150.55 328.11
  Q 145.13 329.49 141.07 333.36
  A 0.20 0.19 53.7 0 0 141.04 333.59
  L 141.18 333.82
  A 0.39 0.38 60.2 0 1 141.04 334.35
  L 140.25 334.79"
/>
<path stroke="#3787c8" vector-effect="non-scaling-stroke" d="
  M 140.25 334.79
  L 138.00 333.46"
/>
<path stroke="#3e93c9" vector-effect="non-scaling-stroke" d="
  M 138.00 333.46
  Q 78.61 294.74 18.29 257.50"
/>
<path stroke="#5247ac" vector-effect="non-scaling-stroke" d="
  M 455.71 267.50
  C 451.52 271.69 446.09 273.99 442.04 276.44
  Q 402.81 300.19 363.75 324.21"
/>
<path stroke="#4948af" vector-effect="non-scaling-stroke" d="
  M 363.75 324.21
  L 317.75 352.46"
/>
<path stroke="#424aba" vector-effect="non-scaling-stroke" d="
  M 317.75 352.46
  Q 286.19 371.79 254.25 390.50
  Q 245.04 395.89 235.75 395.46"
/>
<path stroke="#324fa1" vector-effect="non-scaling-stroke" d="
  M 235.75 395.46
  L 235.54 378.25"
/>
<path stroke="#45a6f1" vector-effect="non-scaling-stroke" d="
  M 138.00 333.46
  Q 137.15 334.31 136.16 333.67
  A 0.35 0.35 0.0 0 0 135.70 333.74
  L 134.16 335.60
  Q 133.61 336.27 133.34 335.44
  L 133.03 334.51
  Q 132.85 333.96 132.73 334.52
  C 131.71 339.24 123.80 341.09 119.24 343.79
  C 110.84 348.78 102.24 353.01 93.75 357.66
  C 90.11 359.65 85.89 360.11 82.07 362.60
  A 0.79 0.79 0.0 0 0 81.73 363.35
  C 82.01 365.53 80.22 365.52 78.67 365.36
  A 1.26 1.23 -60.9 0 0 77.77 365.63
  Q 75.19 367.71 71.98 368.45
  Q 71.53 368.55 71.17 368.86
  L 66.29 373.07
  Q 65.78 373.52 65.42 374.09
  Q 64.60 375.39 62.94 374.95
  A 0.74 0.73 -66.3 0 0 62.13 375.27
  Q 61.41 376.46 60.05 376.56
  A 1.27 1.24 14.2 0 0 59.07 377.13
  Q 58.08 378.65 56.33 378.26
  A 0.76 0.75 19.1 0 0 55.47 378.67
  L 54.36 380.98
  A 1.40 1.38 3.1 0 1 53.56 381.69
  Q 50.31 382.84 51.88 385.81
  A 1.28 1.27 40.6 0 1 51.96 386.80
  Q 51.74 387.44 51.00 387.54"
/>
<path stroke="#6a5ac9" vector-effect="non-scaling-stroke" d="
  M 420.50 388.04
  Q 420.20 387.62 420.67 387.20
  A 0.07 0.06 -52.6 0 0 420.66 387.09
  L 420.31 386.94
  A 0.20 0.19 -56.2 0 1 420.25 386.62
  L 420.44 386.44
  Q 420.76 386.13 420.32 386.03
  Q 418.38 385.57 417.48 383.73
  Q 417.25 383.25 416.84 382.92
  Q 413.63 380.34 411.01 377.18
  C 408.48 374.13 405.22 372.20 403.29 368.21
  A 0.82 0.81 79.9 0 0 402.62 367.74
  Q 400.81 367.59 399.63 366.27
  A 1.50 1.47 -15.3 0 0 398.78 365.80
  Q 397.23 365.51 396.81 364.11
  A 1.59 1.58 -77.8 0 0 396.32 363.34
  Q 394.04 361.39 393.16 358.55
  A 1.31 1.29 8.0 0 0 392.61 357.83
  Q 389.44 355.85 388.04 352.35
  A 1.81 1.80 5.9 0 0 387.36 351.52
  L 384.34 349.52
  A 1.32 1.32 0.0 0 1 383.78 348.69
  Q 383.38 346.60 381.76 345.17
  A 1.47 1.46 -74.5 0 1 381.28 344.32
  L 380.97 342.56
  A 0.68 0.68 0.0 0 0 380.30 342.00
  L 378.36 342.00
  A 0.89 0.88 80.9 0 1 377.52 341.39
  L 375.68 335.66
  A 0.52 0.52 0.0 0 0 374.87 335.41
  L 373.95 336.12
  A 0.61 0.60 50.0 0 1 373.13 336.04
  C 369.98 332.48 368.20 327.10 363.75 324.21"
/>
<path stroke="#595ed7" vector-effect="non-scaling-stroke" d="
  M 379.79 415.75
  L 379.98 414.38
  A 0.94 0.93 -66.1 0 0 379.66 413.54
  Q 376.68 411.03 372.68 410.99
  A 0.97 0.94 70.5 0 1 371.93 410.62
  L 369.77 407.83
  A 1.14 1.14 0.0 0 0 368.95 407.38
  Q 367.15 407.23 366.53 405.43
  A 1.14 1.14 0.0 0 0 365.71 404.70
  Q 363.35 404.18 362.38 402.09
  A 1.81 1.81 0.0 0 0 361.66 401.31
  Q 358.58 399.55 356.40 396.71
  A 1.14 1.14 0.0 0 0 355.61 396.27
  Q 353.42 396.06 353.47 393.80
  A 1.62 1.60 -62.3 0 0 353.16 392.79
  Q 351.70 390.74 349.17 390.03
  Q 348.57 389.86 349.03 389.44
  L 349.23 389.26
  A 0.40 0.40 0.0 0 0 349.28 388.73
  Q 348.45 387.60 348.29 386.15
  Q 348.23 385.63 347.93 385.21
  L 344.49 380.47
  A 1.18 1.16 -57.0 0 1 344.30 379.54
  L 344.55 378.45
  A 0.81 0.81 0.0 0 0 344.13 377.55
  Q 343.06 377.00 341.82 376.93
  A 1.49 1.43 -21.1 0 1 340.91 376.55
  C 338.85 374.62 341.13 369.50 336.61 370.54
  A 0.64 0.63 -11.7 0 1 335.84 370.04
  L 335.65 369.08
  A 1.03 1.03 0.0 0 0 335.06 368.33
  L 333.85 367.78
  Q 333.44 367.59 333.18 367.24
  L 331.01 364.30
  A 0.77 0.76 43.9 0 1 330.99 363.43
  Q 331.20 363.13 331.27 362.75
  Q 331.52 361.60 330.68 362.44
  L 330.10 363.02
  A 0.62 0.62 0.0 0 1 329.39 363.15
  L 326.98 362.00
  A 0.80 0.80 0.0 0 1 326.57 361.01
  L 327.12 359.46
  A 0.52 0.52 0.0 0 0 326.59 358.77
  Q 324.43 358.95 323.35 357.14
  A 0.29 0.11 61.4 0 1 323.31 356.81
  L 323.63 356.74
  A 0.26 0.26 0.0 0 0 323.79 356.36
  Q 321.77 352.90 317.75 352.46"
/>
<path stroke="#4365c9" vector-effect="non-scaling-stroke" d="
  M 235.75 395.46
  L 235.50 395.54"
/>
<path stroke="#3982d0" vector-effect="non-scaling-stroke" d="
  M 235.50 395.54
  L 140.25 334.79"
/>
<path stroke="#487de9" vector-effect="non-scaling-stroke" d="
  M 235.50 395.54
  C 235.25 435.91 235.73 476.40 235.86 516.80"
/>
</g>
<g>
<path fill="#fd624a" d="
  M 215.99 0.00
  L 253.06 0.00
  L 253.13 58.24
  Q 252.30 59.20 252.26 60.62
  Q 252.24 61.10 251.88 60.78
  L 249.37 58.50
  A 0.67 0.67 0.0 0 0 248.56 58.44
  Q 246.66 59.70 244.42 58.95
  A 1.12 1.12 0.0 0 0 243.46 59.07
  Q 241.57 60.28 239.42 60.79
  C 236.76 61.41 235.02 59.60 231.94 61.27
  A 0.83 0.82 47.5 0 1 231.10 61.23
  C 229.61 60.20 228.25 59.48 226.31 59.58
  C 224.44 59.67 220.27 60.42 218.72 59.55
  A 0.52 0.52 0.0 0 0 218.01 59.76
  L 217.83 60.08
  Q 217.42 60.83 217.22 60.00
  L 216.69 57.75
  Q 216.56 57.19 216.52 57.76
  L 216.21 62.22
  Q 216.15 63.07 216.03 62.23
  L 215.54 58.75
  L 215.99 0.00
  Z"
/>
<path fill="#ee5044" d="
  M 253.13 58.24
  C 253.46 62.64 252.51 75.07 254.46 78.14
  L 254.04 107.75
  Q 250.68 111.66 252.04 116.81
  A 0.88 0.86 -30.5 0 1 251.81 117.65
  C 247.88 121.60 248.74 125.17 248.74 129.85
  C 248.75 135.69 247.02 141.48 245.73 147.12
  Q 245.72 147.17 244.62 153.48
  Q 243.37 160.67 238.68 166.55
  A 0.42 0.42 0.0 0 1 238.03 166.56
  C 236.25 164.41 234.85 162.99 234.35 160.05
  Q 232.98 152.02 230.17 144.36
  C 229.63 142.90 228.64 142.30 228.36 140.61
  C 227.48 135.24 226.87 125.78 223.77 121.40
  A 1.20 1.19 32.3 0 1 223.57 120.52
  Q 224.76 113.09 218.04 109.58
  C 216.70 104.57 214.48 99.62 214.12 94.63
  Q 213.61 87.57 214.46 80.50
  L 215.24 79.19
  A 1.87 1.86 -29.8 0 0 215.50 78.24
  L 215.54 58.75
  L 216.03 62.23
  Q 216.15 63.07 216.21 62.22
  L 216.52 57.76
  Q 216.56 57.19 216.69 57.75
  L 217.22 60.00
  Q 217.42 60.83 217.83 60.08
  L 218.01 59.76
  A 0.52 0.52 0.0 0 1 218.72 59.55
  C 220.27 60.42 224.44 59.67 226.31 59.58
  C 228.25 59.48 229.61 60.20 231.10 61.23
  A 0.83 0.82 47.5 0 0 231.94 61.27
  C 235.02 59.60 236.76 61.41 239.42 60.79
  Q 241.57 60.28 243.46 59.07
  A 1.12 1.12 0.0 0 1 244.42 58.95
  Q 246.66 59.70 248.56 58.44
  A 0.67 0.67 0.0 0 1 249.37 58.50
  L 251.88 60.78
  Q 252.24 61.10 252.26 60.62
  Q 252.30 59.20 253.13 58.24
  Z"
/>
<path fill="#d96fbb" d="
  M 254.46 78.14
  L 351.25 113.96
  L 349.83 115.57
  A 0.57 0.56 -46.2 0 0 349.84 116.33
  Q 350.35 116.87 351.14 116.96
  A 1.53 1.49 -18.3 0 1 351.98 117.37
  C 353.36 118.74 352.73 120.61 355.47 120.57
  A 1.71 1.67 60.6 0 1 356.43 120.85
  Q 362.61 124.97 367.87 130.22
  A 1.12 1.10 63.5 0 0 368.80 130.54
  Q 371.89 130.16 373.59 132.60
  A 1.08 1.06 39.4 0 1 373.70 133.63
  Q 372.87 135.57 374.61 136.38
  A 1.38 1.37 46.4 0 0 375.70 136.41
  Q 377.27 135.76 377.78 137.21
  A 1.64 1.64 0.0 0 0 378.40 138.01
  Q 381.26 139.90 384.16 141.68
  C 385.84 142.71 388.15 142.86 389.70 144.50
  Q 391.56 146.47 392.24 146.94
  Q 395.42 149.13 398.15 151.85
  A 1.50 1.43 -17.3 0 0 398.98 152.26
  C 401.88 152.65 405.84 157.98 407.58 160.22
  C 408.52 161.45 409.58 161.92 410.81 162.77
  C 412.36 163.83 413.11 165.76 415.29 166.58
  A 1.71 1.68 81.8 0 1 416.10 167.20
  Q 417.10 168.63 418.86 168.71
  A 0.96 0.94 -13.9 0 1 419.64 169.17
  L 422.14 173.25
  A 1.22 1.20 -9.0 0 0 422.94 173.82
  C 426.18 174.51 427.83 178.32 429.43 181.40
  A 1.44 1.38 87.5 0 0 430.11 182.05
  Q 433.36 183.49 435.78 186.31
  L 412.75 199.21
  L 370.25 223.21
  L 365.04 226.00
  C 365.01 224.97 365.34 224.01 365.01 223.03
  Q 362.16 214.50 355.06 208.85
  A 1.47 1.45 12.5 0 1 354.55 208.06
  C 353.50 204.08 350.91 203.69 348.71 201.09
  Q 345.16 196.88 340.60 193.76
  A 1.14 1.11 12.9 0 1 340.13 193.03
  Q 339.61 190.22 337.04 189.45
  A 0.10 0.06 -51.8 0 1 337.06 189.31
  L 337.30 189.08
  Q 337.80 188.57 337.17 188.90
  L 336.74 189.13
  A 0.72 0.71 62.5 0 1 335.78 188.82
  Q 335.45 188.15 335.71 187.50
  Q 343.04 184.39 346.26 179.50
  C 348.23 176.53 349.49 166.75 345.91 163.46
  C 344.42 162.10 344.24 160.49 342.41 159.14
  C 340.93 158.03 339.98 156.42 338.82 155.33
  C 334.06 150.85 328.84 144.80 323.02 141.88
  C 319.08 139.89 315.50 134.75 313.51 133.24
  C 306.98 128.29 300.47 122.51 293.24 119.22
  Q 287.91 116.79 282.32 114.99
  C 280.38 114.37 278.56 113.05 276.52 112.28
  C 269.46 109.63 260.98 100.82 254.04 107.75
  L 254.46 78.14
  Z"
/>
<path fill="#ad7ed5" d="
  M 214.46 80.50
  Q 213.61 87.57 214.12 94.63
  C 214.48 99.62 216.70 104.57 218.04 109.58
  C 209.32 109.24 201.86 111.10 194.60 115.86
  C 187.11 120.78 180.24 122.31 171.64 123.26
  Q 170.06 122.25 168.28 120.23
  Q 164.64 116.13 162.97 114.03
  A 1.75 1.71 80.5 0 0 162.19 113.46
  C 160.55 112.86 157.29 108.58 155.96 107.33
  A 0.62 0.62 0.0 0 1 155.88 106.52
  L 156.36 105.82
  Q 156.87 105.08 155.98 105.24
  L 154.35 105.54
  Q 152.81 105.82 154.19 105.07
  L 155.05 104.61
  A 0.46 0.46 0.0 0 0 155.10 103.84
  L 154.25 103.21
  L 214.46 80.50
  Z"
/>
<path fill="#9396e2" d="
  M 154.25 103.21
  L 155.10 103.84
  A 0.46 0.46 0.0 0 1 155.05 104.61
  L 154.19 105.07
  Q 152.81 105.82 154.35 105.54
  L 155.98 105.24
  Q 156.87 105.08 156.36 105.82
  L 155.88 106.52
  A 0.62 0.62 0.0 0 0 155.96 107.33
  C 157.29 108.58 160.55 112.86 162.19 113.46
  A 1.75 1.71 80.5 0 1 162.97 114.03
  Q 164.64 116.13 168.28 120.23
  Q 170.06 122.25 171.64 123.26
  C 169.82 124.05 167.89 124.41 166.30 125.22
  Q 159.33 128.73 152.51 132.53
  C 147.41 135.37 143.49 135.56 139.00 140.16
  C 133.45 145.83 127.82 148.16 122.75 155.79
  Q 121.90 154.55 122.47 153.30
  A 0.66 0.65 -53.3 0 0 122.37 152.59
  L 118.03 147.62
  Q 117.69 147.23 117.22 147.05
  C 112.55 145.21 106.90 138.38 103.99 134.32
  A 1.40 1.36 -11.4 0 0 103.15 133.78
  Q 100.60 133.24 100.15 130.50
  A 0.89 0.87 8.3 0 0 99.64 129.83
  C 98.33 129.22 98.03 127.79 97.26 127.05
  Q 96.20 126.04 94.96 125.25
  L 154.25 103.21
  Z"
/>
<path fill="#e96eb5" d="
  M 351.25 113.96
  L 478.47 160.64
  A 1.13 1.11 83.5 0 1 479.01 161.08
  L 479.29 161.50
  Q 457.96 174.56 435.78 186.31
  Q 433.36 183.49 430.11 182.05
  A 1.44 1.38 87.5 0 1 429.43 181.40
  C 427.83 178.32 426.18 174.51 422.94 173.82
  A 1.22 1.20 -9.0 0 1 422.14 173.25
  L 419.64 169.17
  A 0.96 0.94 -13.9 0 0 418.86 168.71
  Q 417.10 168.63 416.10 167.20
  A 1.71 1.68 81.8 0 0 415.29 166.58
  C 413.11 165.76 412.36 163.83 410.81 162.77
  C 409.58 161.92 408.52 161.45 407.58 160.22
  C 405.84 157.98 401.88 152.65 398.98 152.26
  A 1.50 1.43 -17.3 0 1 398.15 151.85
  Q 395.42 149.13 392.24 146.94
  Q 391.56 146.47 389.70 144.50
  C 388.15 142.86 385.84 142.71 384.16 141.68
  Q 381.26 139.90 378.40 138.01
  A 1.64 1.64 0.0 0 1 377.78 137.21
  Q 377.27 135.76 375.70 136.41
  A 1.38 1.37 46.4 0 1 374.61 136.38
  Q 372.87 135.57 373.70 133.63
  A 1.08 1.06 39.4 0 0 373.59 132.60
  Q 371.89 130.16 368.80 130.54
  A 1.12 1.10 63.5 0 1 367.87 130.22
  Q 362.61 124.97 356.43 120.85
  A 1.71 1.67 60.6 0 0 355.47 120.57
  C 352.73 120.61 353.36 118.74 351.98 117.37
  A 1.53 1.49 -18.3 0 0 351.14 116.96
  Q 350.35 116.87 349.84 116.33
  A 0.57 0.56 -46.2 0 1 349.83 115.57
  L 351.25 113.96
  Z"
/>
<path fill="#78a3e5" d="
  M 94.96 125.25
  Q 96.20 126.04 97.26 127.05
  C 98.03 127.79 98.33 129.22 99.64 129.83
  A 0.89 0.87 8.3 0 1 100.15 130.50
  Q 100.60 133.24 103.15 133.78
  A 1.40 1.36 -11.4 0 1 103.99 134.32
  C 106.90 138.38 112.55 145.21 117.22 147.05
  Q 117.69 147.23 118.03 147.62
  L 122.37 152.59
  A 0.66 0.65 -53.3 0 1 122.47 153.30
  Q 121.90 154.55 122.75 155.79
  C 115.59 175.38 131.25 186.04 145.55 194.43
  Q 146.37 194.92 148.28 195.16
  A 1.88 1.86 -22.8 0 1 149.18 195.52
  Q 158.09 202.27 165.45 205.79
  C 168.95 207.45 171.28 209.42 174.23 211.12
  C 176.08 212.20 177.39 213.53 179.43 214.31
  C 187.56 217.43 193.12 223.41 202.30 225.11
  C 208.04 226.17 212.96 228.55 218.57 229.89
  C 222.39 230.80 226.42 230.36 230.50 230.71
  C 229.41 233.17 231.15 235.02 230.33 237.77
  A 0.63 0.62 -65.7 0 0 230.59 238.47
  L 234.06 240.65
  A 1.40 1.38 6.1 0 1 234.58 241.29
  L 235.37 243.32
  A 1.44 1.43 1.8 0 0 236.09 244.08
  Q 238.39 245.14 237.23 247.29
  A 0.55 0.54 25.3 0 0 237.51 248.05
  Q 240.16 249.14 240.90 251.86
  A 1.62 1.60 -78.8 0 0 241.46 252.71
  C 243.79 254.54 246.20 255.68 245.17 259.34
  A 1.22 1.21 -64.8 0 0 245.64 260.66
  Q 250.40 264.02 253.35 269.13
  A 1.45 1.45 0.0 0 1 253.53 270.03
  L 253.30 272.03
  A 0.68 0.67 -78.4 0 0 253.78 272.76
  Q 256.30 273.51 256.56 276.17
  Q 256.61 276.65 256.83 277.06
  Q 259.07 281.24 259.04 286.00
  L 237.09 298.30
  Q 233.99 297.76 229.19 294.81
  Q 193.15 272.72 125.04 233.00
  L 118.52 229.03
  Q 117.07 223.14 112.93 218.87
  Q 111.44 217.34 110.76 215.56
  C 108.84 210.63 106.36 205.61 101.21 203.80
  A 1.02 0.99 0.3 0 1 100.61 203.21
  Q 99.30 199.68 96.40 197.31
  A 1.07 1.06 20.2 0 1 96.00 196.46
  L 96.01 193.98
  A 1.10 1.07 20.6 0 0 95.62 193.15
  C 91.54 189.66 88.62 185.60 84.95 181.77
  C 82.69 179.42 81.35 176.74 78.42 175.03
  Q 75.64 173.42 73.28 171.18
  A 1.74 1.71 15.2 0 1 72.79 170.34
  C 71.76 166.29 70.87 163.45 66.66 161.89
  A 1.04 1.04 0.0 0 1 66.00 161.15
  Q 65.46 158.92 63.66 157.65
  A 2.15 2.13 -85.3 0 1 62.97 156.83
  Q 61.51 153.62 58.88 151.27
  A 1.13 1.09 -68.2 0 1 58.52 150.38
  Q 58.74 146.29 55.04 144.86
  A 0.61 0.61 0.0 0 1 54.66 144.15
  L 55.48 140.80
  Q 55.66 140.05 55.17 140.65
  L 55.00 140.86
  A 0.34 0.34 0.0 0 1 54.46 140.85
  L 54.00 140.21
  L 94.96 125.25
  Z"
/>
<path fill="#6fb2e7" d="
  M 54.00 140.21
  L 54.46 140.85
  A 0.34 0.34 0.0 0 0 55.00 140.86
  L 55.17 140.65
  Q 55.66 140.05 55.48 140.80
  L 54.66 144.15
  A 0.61 0.61 0.0 0 0 55.04 144.86
  Q 58.74 146.29 58.52 150.38
  A 1.13 1.09 -68.2 0 0 58.88 151.27
  Q 61.51 153.62 62.97 156.83
  A 2.15 2.13 -85.3 0 0 63.66 157.65
  Q 65.46 158.92 66.00 161.15
  A 1.04 1.04 0.0 0 0 66.66 161.89
  C 70.87 163.45 71.76 166.29 72.79 170.34
  A 1.74 1.71 15.2 0 0 73.28 171.18
  Q 75.64 173.42 78.42 175.03
  C 81.35 176.74 82.69 179.42 84.95 181.77
  C 88.62 185.60 91.54 189.66 95.62 193.15
  A 1.10 1.07 20.6 0 1 96.01 193.98
  L 96.00 196.46
  A 1.07 1.06 20.2 0 0 96.40 197.31
  Q 99.30 199.68 100.61 203.21
  A 1.02 0.99 0.3 0 0 101.21 203.80
  C 106.36 205.61 108.84 210.63 110.76 215.56
  Q 111.44 217.34 112.93 218.87
  Q 117.07 223.14 118.52 229.03
  L 74.29 203.25
  C 50.77 189.24 26.93 175.85 3.78 161.23
  A 0.76 0.75 20.2 0 1 3.44 160.50
  Q 3.60 159.25 1.64 158.80
  L 54.00 140.21
  Z"
/>
<path fill="#5acff0" d="
  M 1.64 158.80
  Q 3.60 159.25 3.44 160.50
  A 0.76 0.75 20.2 0 0 3.78 161.23
  C 26.93 175.85 50.77 189.24 74.29 203.25
  Q 72.56 206.15 69.51 207.75
  A 1.30 1.29 -7.1 0 0 68.87 208.57
  L 67.96 212.35
  A 0.85 0.83 -4.1 0 1 67.43 212.95
  Q 62.87 214.72 59.86 218.48
  C 58.29 220.44 58.35 223.13 55.71 225.01
  A 0.97 0.96 73.2 0 0 55.30 225.78
  C 55.15 233.59 44.24 234.12 44.71 238.73
  A 1.35 1.31 61.3 0 1 44.45 239.66
  Q 43.84 240.46 42.85 240.51
  A 1.51 1.48 23.3 0 0 42.00 240.84
  Q 40.25 242.21 40.97 244.25
  A 0.82 0.81 61.5 0 1 40.70 245.17
  L 36.51 248.42
  A 0.76 0.76 0.0 0 0 36.30 249.36
  L 36.58 249.94
  Q 36.87 250.53 36.31 250.18
  L 36.09 250.04
  A 0.50 0.50 0.0 0 0 35.52 250.08
  Q 35.21 250.34 35.25 250.71
  L 17.28 239.14
  A 0.59 0.59 0.0 0 1 17.03 238.83
  L 16.94 238.59
  A 0.46 0.45 -12.9 0 0 16.46 238.29
  Q 16.20 238.32 16.00 238.54
  Q 14.16 235.44 12.19 234.60
  Q 9.78 233.58 9.44 230.99
  Q 4.72 194.92 1.64 158.80
  Z"
/>
<path fill="#6d338f" d="
  M 479.29 161.50
  C 480.05 162.32 467.61 232.71 466.33 240.36
  Q 466.02 242.19 464.22 242.61
  Q 460.78 243.42 458.86 246.87
  Q 455.17 247.55 452.00 250.04
  Q 450.64 249.62 449.82 250.56
  Q 449.56 250.86 449.20 251.03
  L 446.79 252.16
  A 0.56 0.56 0.0 0 1 446.12 252.00
  Q 445.53 251.24 445.73 250.23
  A 1.47 1.47 0.0 0 0 445.61 249.29
  C 443.94 245.92 443.26 242.11 441.30 239.19
  Q 438.96 235.72 436.00 232.79
  C 433.20 230.01 432.01 226.07 429.83 222.78
  C 428.08 220.12 425.01 218.82 422.99 215.92
  Q 422.37 215.04 421.44 214.50
  Q 419.99 213.66 420.25 212.07
  A 1.05 1.05 0.0 0 0 419.95 211.13
  Q 416.79 207.95 415.91 203.53
  A 1.48 1.44 12.9 0 0 415.33 202.63
  L 413.14 201.05
  A 0.87 0.87 0.0 0 1 412.77 200.34
  L 412.75 199.21
  L 435.78 186.31
  Q 457.96 174.56 479.29 161.50
  Z"
/>
<path fill="#ad7ed5" d="
  M 335.71 187.50
  Q 335.45 188.15 335.78 188.82
  A 0.72 0.71 62.5 0 0 336.74 189.13
  L 337.17 188.90
  Q 337.80 188.57 337.30 189.08
  L 337.06 189.31
  A 0.10 0.06 -51.8 0 0 337.04 189.45
  Q 339.61 190.22 340.13 193.03
  A 1.14 1.11 12.9 0 0 340.60 193.76
  Q 345.16 196.88 348.71 201.09
  C 350.91 203.69 353.50 204.08 354.55 208.06
  A 1.47 1.45 12.5 0 0 355.06 208.85
  Q 362.16 214.50 365.01 223.03
  C 365.34 224.01 365.01 224.97 365.04 226.00
  L 283.04 272.50
  Q 282.78 272.32 282.49 272.43
  Q 282.17 272.56 282.22 272.21
  Q 282.61 269.78 281.14 268.03
  C 278.87 265.34 278.24 263.71 277.20 260.70
  A 1.57 1.55 -81.6 0 0 276.64 259.94
  C 274.71 258.52 270.96 255.62 270.36 253.25
  Q 270.24 252.77 269.91 252.40
  C 266.90 249.10 265.62 244.49 262.17 241.97
  Q 261.80 241.70 261.61 241.29
  Q 259.91 237.68 256.75 235.32
  A 0.65 0.64 -70.5 0 1 256.50 234.79
  L 256.51 234.51
  A 0.59 0.59 0.0 0 0 256.13 233.93
  L 253.94 233.14
  A 1.41 1.40 -42.9 0 0 253.09 233.11
  L 251.62 233.50
  A 0.65 0.64 71.9 0 1 250.84 233.10
  L 250.25 231.54
  C 259.71 231.94 269.32 227.87 277.69 223.34
  Q 292.83 215.13 307.08 205.48
  C 314.55 200.43 323.69 195.74 331.39 189.59
  C 332.79 188.47 334.09 188.13 335.71 187.50
  Z"
/>
<path fill="#573797" d="
  M 412.75 199.21
  L 412.77 200.34
  A 0.87 0.87 0.0 0 0 413.14 201.05
  L 415.33 202.63
  A 1.48 1.44 12.9 0 1 415.91 203.53
  Q 416.79 207.95 419.95 211.13
  A 1.05 1.05 0.0 0 1 420.25 212.07
  Q 419.99 213.66 421.44 214.50
  Q 422.37 215.04 422.99 215.92
  C 425.01 218.82 428.08 220.12 429.83 222.78
  C 432.01 226.07 433.20 230.01 436.00 232.79
  Q 438.96 235.72 441.30 239.19
  C 443.26 242.11 443.94 245.92 445.61 249.29
  A 1.47 1.47 0.0 0 1 445.73 250.23
  Q 445.53 251.24 446.12 252.00
  A 0.56 0.56 0.0 0 0 446.79 252.16
  L 449.20 251.03
  Q 449.56 250.86 449.82 250.56
  Q 450.64 249.62 452.00 250.04
  L 403.54 279.75
  L 404.37 278.45
  A 0.89 0.88 50.1 0 0 404.44 277.63
  Q 401.90 271.43 401.07 270.19
  C 395.21 261.43 391.15 253.73 384.03 243.72
  A 1.62 1.62 0.0 0 0 383.20 243.10
  Q 380.46 242.20 381.24 239.25
  A 0.78 0.77 29.8 0 0 381.03 238.49
  L 377.81 235.48
  Q 377.46 235.15 377.29 234.70
  L 375.15 229.16
  A 1.27 1.24 -0.8 0 0 374.38 228.43
  Q 372.16 227.67 371.83 225.35
  A 0.71 0.69 86.4 0 0 371.17 224.75
  L 370.07 224.71
  Q 369.29 224.68 370.14 224.04
  Q 370.58 223.70 370.25 223.21
  L 412.75 199.21
  Z"
/>
<path fill="#56c4ef" d="
  M 74.29 203.25
  L 118.52 229.03
  L 125.04 233.00
  C 123.90 235.13 122.40 236.61 121.11 238.99
  C 120.19 240.67 118.83 241.24 118.03 242.94
  C 116.04 247.17 115.58 250.35 110.55 251.82
  A 1.31 1.30 6.2 0 0 109.77 252.44
  L 107.24 257.11
  A 1.28 1.27 -84.9 0 1 106.52 257.72
  C 102.15 259.15 101.63 261.82 99.02 264.96
  Q 97.90 266.30 97.24 267.96
  A 1.88 1.81 82.3 0 1 96.69 268.71
  Q 95.52 269.62 95.26 273.06
  A 0.13 0.13 0.0 0 1 95.20 273.15
  Q 93.94 273.80 92.87 272.98
  A 0.72 0.70 41.9 0 0 91.96 273.02
  Q 88.12 276.59 85.21 280.98
  Q 85.08 281.18 84.76 281.30
  Q 84.46 281.40 84.75 281.54
  Q 85.31 281.82 85.21 282.50
  L 35.25 250.71
  Q 35.21 250.34 35.52 250.08
  A 0.50 0.50 0.0 0 1 36.09 250.04
  L 36.31 250.18
  Q 36.87 250.53 36.58 249.94
  L 36.30 249.36
  A 0.76 0.76 0.0 0 1 36.51 248.42
  L 40.70 245.17
  A 0.82 0.81 61.5 0 0 40.97 244.25
  Q 40.25 242.21 42.00 240.84
  A 1.51 1.48 23.3 0 1 42.85 240.51
  Q 43.84 240.46 44.45 239.66
  A 1.35 1.31 61.3 0 0 44.71 238.73
  C 44.24 234.12 55.15 233.59 55.30 225.78
  A 0.97 0.96 73.2 0 1 55.71 225.01
  C 58.35 223.13 58.29 220.44 59.86 218.48
  Q 62.87 214.72 67.43 212.95
  A 0.85 0.83 -4.1 0 0 67.96 212.35
  L 68.87 208.57
  A 1.30 1.29 -7.1 0 1 69.51 207.75
  Q 72.56 206.15 74.29 203.25
  Z"
/>
<path fill="#3843a9" d="
  M 370.25 223.21
  Q 370.58 223.70 370.14 224.04
  Q 369.29 224.68 370.07 224.71
  L 371.17 224.75
  A 0.71 0.69 86.4 0 1 371.83 225.35
  Q 372.16 227.67 374.38 228.43
  A 1.27 1.24 -0.8 0 1 375.15 229.16
  L 377.29 234.70
  Q 377.46 235.15 377.81 235.48
  L 381.03 238.49
  A 0.78 0.77 29.8 0 1 381.24 239.25
  Q 380.46 242.20 383.20 243.10
  A 1.62 1.62 0.0 0 1 384.03 243.72
  C 391.15 253.73 395.21 261.43 401.07 270.19
  Q 401.90 271.43 404.44 277.63
  A 0.89 0.88 50.1 0 1 404.37 278.45
  L 403.54 279.75
  C 387.31 289.93 370.77 299.68 354.59 309.87
  C 318.75 332.43 282.68 354.95 245.51 375.27
  Q 240.23 378.16 235.54 378.25
  L 235.75 376.96
  C 236.36 377.01 236.69 376.81 236.70 376.16
  Q 237.55 337.22 237.09 298.30
  L 259.04 286.00
  L 283.04 272.50
  L 365.04 226.00
  L 370.25 223.21
  Z"
/>
<path fill="#9396e2" d="
  M 230.50 230.71
  Q 240.34 231.80 250.25 231.54
  L 250.84 233.10
  A 0.65 0.64 71.9 0 0 251.62 233.50
  L 253.09 233.11
  A 1.41 1.40 -42.9 0 1 253.94 233.14
  L 256.13 233.93
  A 0.59 0.59 0.0 0 1 256.51 234.51
  L 256.50 234.79
  A 0.65 0.64 -70.5 0 0 256.75 235.32
  Q 259.91 237.68 261.61 241.29
  Q 261.80 241.70 262.17 241.97
  C 265.62 244.49 266.90 249.10 269.91 252.40
  Q 270.24 252.77 270.36 253.25
  C 270.96 255.62 274.71 258.52 276.64 259.94
  A 1.57 1.55 -81.6 0 1 277.20 260.70
  C 278.24 263.71 278.87 265.34 281.14 268.03
  Q 282.61 269.78 282.22 272.21
  Q 282.17 272.56 282.49 272.43
  Q 282.78 272.32 283.04 272.50
  L 259.04 286.00
  Q 259.07 281.24 256.83 277.06
  Q 256.61 276.65 256.56 276.17
  Q 256.30 273.51 253.78 272.76
  A 0.68 0.67 -78.4 0 1 253.30 272.03
  L 253.53 270.03
  A 1.45 1.45 0.0 0 0 253.35 269.13
  Q 250.40 264.02 245.64 260.66
  A 1.22 1.21 -64.8 0 1 245.17 259.34
  C 246.20 255.68 243.79 254.54 241.46 252.71
  A 1.62 1.60 -78.8 0 1 240.90 251.86
  Q 240.16 249.14 237.51 248.05
  A 0.55 0.54 25.3 0 1 237.23 247.29
  Q 238.39 245.14 236.09 244.08
  A 1.44 1.43 1.8 0 1 235.37 243.32
  L 234.58 241.29
  A 1.40 1.38 6.1 0 0 234.06 240.65
  L 230.59 238.47
  A 0.63 0.62 -65.7 0 1 230.33 237.77
  C 231.15 235.02 229.41 233.17 230.50 230.71
  Z"
/>
<path fill="#4bb2f2" d="
  M 125.04 233.00
  Q 193.15 272.72 229.19 294.81
  Q 233.99 297.76 237.09 298.30
  Q 237.55 337.22 236.70 376.16
  C 236.69 376.81 236.36 377.01 235.75 376.96
  L 153.50 325.71
  L 85.21 282.50
  Q 85.31 281.82 84.75 281.54
  Q 84.46 281.40 84.76 281.30
  Q 85.08 281.18 85.21 280.98
  Q 88.12 276.59 91.96 273.02
  A 0.72 0.70 41.9 0 1 92.87 272.98
  Q 93.94 273.80 95.20 273.15
  A 0.13 0.13 0.0 0 0 95.26 273.06
  Q 95.52 269.62 96.69 268.71
  A 1.88 1.81 82.3 0 0 97.24 267.96
  Q 97.90 266.30 99.02 264.96
  C 101.63 261.82 102.15 259.15 106.52 257.72
  A 1.28 1.27 -84.9 0 0 107.24 257.11
  L 109.77 252.44
  A 1.31 1.30 6.2 0 1 110.55 251.82
  C 115.58 250.35 116.04 247.17 118.03 242.94
  C 118.83 241.24 120.19 240.67 121.11 238.99
  C 122.40 236.61 123.90 235.13 125.04 233.00
  Z"
/>
<path fill="#30749f" d="
  M 35.25 250.71
  L 85.21 282.50
  L 153.50 325.71
  L 153.09 325.75
  Q 152.69 325.79 152.97 326.08
  L 153.17 326.29
  Q 154.45 327.61 152.85 326.70
  L 152.14 326.30
  A 0.32 0.32 0.0 0 0 151.67 326.47
  L 151.34 327.39
  A 1.14 1.13 2.4 0 1 150.55 328.11
  Q 145.13 329.49 141.07 333.36
  A 0.20 0.19 53.7 0 0 141.04 333.59
  L 141.18 333.82
  A 0.39 0.38 60.2 0 1 141.04 334.35
  L 140.25 334.79
  L 138.00 333.46
  Q 78.61 294.74 18.29 257.50
  L 16.00 238.54
  Q 16.20 238.32 16.46 238.29
  A 0.46 0.45 -12.9 0 1 16.94 238.59
  L 17.03 238.83
  A 0.59 0.59 0.0 0 0 17.28 239.14
  L 35.25 250.71
  Z"
/>
<path fill="#313492" d="
  M 458.86 246.87
  Q 457.76 257.40 455.71 267.50
  C 451.52 271.69 446.09 273.99 442.04 276.44
  Q 402.81 300.19 363.75 324.21
  L 317.75 352.46
  Q 286.19 371.79 254.25 390.50
  Q 245.04 395.89 235.75 395.46
  L 235.54 378.25
  Q 240.23 378.16 245.51 375.27
  C 282.68 354.95 318.75 332.43 354.59 309.87
  C 370.77 299.68 387.31 289.93 403.54 279.75
  L 452.00 250.04
  Q 455.17 247.55 458.86 246.87
  Z"
/>
<path fill="#4bb2f2" d="
  M 18.29 257.50
  Q 78.61 294.74 138.00 333.46
  Q 137.15 334.31 136.16 333.67
  A 0.35 0.35 0.0 0 0 135.70 333.74
  L 134.16 335.60
  Q 133.61 336.27 133.34 335.44
  L 133.03 334.51
  Q 132.85 333.96 132.73 334.52
  C 131.71 339.24 123.80 341.09 119.24 343.79
  C 110.84 348.78 102.24 353.01 93.75 357.66
  C 90.11 359.65 85.89 360.11 82.07 362.60
  A 0.79 0.79 0.0 0 0 81.73 363.35
  C 82.01 365.53 80.22 365.52 78.67 365.36
  A 1.26 1.23 -60.9 0 0 77.77 365.63
  Q 75.19 367.71 71.98 368.45
  Q 71.53 368.55 71.17 368.86
  L 66.29 373.07
  Q 65.78 373.52 65.42 374.09
  Q 64.60 375.39 62.94 374.95
  A 0.74 0.73 -66.3 0 0 62.13 375.27
  Q 61.41 376.46 60.05 376.56
  A 1.27 1.24 14.2 0 0 59.07 377.13
  Q 58.08 378.65 56.33 378.26
  A 0.76 0.75 19.1 0 0 55.47 378.67
  L 54.36 380.98
  A 1.40 1.38 3.1 0 1 53.56 381.69
  Q 50.31 382.84 51.88 385.81
  A 1.28 1.27 40.6 0 1 51.96 386.80
  Q 51.74 387.44 51.00 387.54
  Q 43.94 382.66 36.78 377.77
  C 33.39 375.46 33.41 372.20 32.90 368.32
  Q 25.50 312.92 18.29 257.50
  Z"
/>
<path fill="#7359c5" d="
  M 455.71 267.50
  Q 447.56 321.31 438.28 374.94
  A 1.37 1.35 -14.5 0 1 437.79 375.76
  Q 429.50 382.39 420.50 388.04
  Q 420.20 387.62 420.67 387.20
  A 0.07 0.06 -52.6 0 0 420.66 387.09
  L 420.31 386.94
  A 0.20 0.19 -56.2 0 1 420.25 386.62
  L 420.44 386.44
  Q 420.76 386.13 420.32 386.03
  Q 418.38 385.57 417.48 383.73
  Q 417.25 383.25 416.84 382.92
  Q 413.63 380.34 411.01 377.18
  C 408.48 374.13 405.22 372.20 403.29 368.21
  A 0.82 0.81 79.9 0 0 402.62 367.74
  Q 400.81 367.59 399.63 366.27
  A 1.50 1.47 -15.3 0 0 398.78 365.80
  Q 397.23 365.51 396.81 364.11
  A 1.59 1.58 -77.8 0 0 396.32 363.34
  Q 394.04 361.39 393.16 358.55
  A 1.31 1.29 8.0 0 0 392.61 357.83
  Q 389.44 355.85 388.04 352.35
  A 1.81 1.80 5.9 0 0 387.36 351.52
  L 384.34 349.52
  A 1.32 1.32 0.0 0 1 383.78 348.69
  Q 383.38 346.60 381.76 345.17
  A 1.47 1.46 -74.5 0 1 381.28 344.32
  L 380.97 342.56
  A 0.68 0.68 0.0 0 0 380.30 342.00
  L 378.36 342.00
  A 0.89 0.88 80.9 0 1 377.52 341.39
  L 375.68 335.66
  A 0.52 0.52 0.0 0 0 374.87 335.41
  L 373.95 336.12
  A 0.61 0.60 50.0 0 1 373.13 336.04
  C 369.98 332.48 368.20 327.10 363.75 324.21
  Q 402.81 300.19 442.04 276.44
  C 446.09 273.99 451.52 271.69 455.71 267.50
  Z"
/>
<path fill="#605bcc" d="
  M 363.75 324.21
  C 368.20 327.10 369.98 332.48 373.13 336.04
  A 0.61 0.60 50.0 0 0 373.95 336.12
  L 374.87 335.41
  A 0.52 0.52 0.0 0 1 375.68 335.66
  L 377.52 341.39
  A 0.89 0.88 80.9 0 0 378.36 342.00
  L 380.30 342.00
  A 0.68 0.68 0.0 0 1 380.97 342.56
  L 381.28 344.32
  A 1.47 1.46 -74.5 0 0 381.76 345.17
  Q 383.38 346.60 383.78 348.69
  A 1.32 1.32 0.0 0 0 384.34 349.52
  L 387.36 351.52
  A 1.81 1.80 5.9 0 1 388.04 352.35
  Q 389.44 355.85 392.61 357.83
  A 1.31 1.29 8.0 0 1 393.16 358.55
  Q 394.04 361.39 396.32 363.34
  A 1.59 1.58 -77.8 0 1 396.81 364.11
  Q 397.23 365.51 398.78 365.80
  A 1.50 1.47 -15.3 0 1 399.63 366.27
  Q 400.81 367.59 402.62 367.74
  A 0.82 0.81 79.9 0 1 403.29 368.21
  C 405.22 372.20 408.48 374.13 411.01 377.18
  Q 413.63 380.34 416.84 382.92
  Q 417.25 383.25 417.48 383.73
  Q 418.38 385.57 420.32 386.03
  Q 420.76 386.13 420.44 386.44
  L 420.25 386.62
  A 0.20 0.19 -56.2 0 0 420.31 386.94
  L 420.66 387.09
  A 0.07 0.06 -52.6 0 1 420.67 387.20
  Q 420.20 387.62 420.50 388.04
  L 379.79 415.75
  L 379.98 414.38
  A 0.94 0.93 -66.1 0 0 379.66 413.54
  Q 376.68 411.03 372.68 410.99
  A 0.97 0.94 70.5 0 1 371.93 410.62
  L 369.77 407.83
  A 1.14 1.14 0.0 0 0 368.95 407.38
  Q 367.15 407.23 366.53 405.43
  A 1.14 1.14 0.0 0 0 365.71 404.70
  Q 363.35 404.18 362.38 402.09
  A 1.81 1.81 0.0 0 0 361.66 401.31
  Q 358.58 399.55 356.40 396.71
  A 1.14 1.14 0.0 0 0 355.61 396.27
  Q 353.42 396.06 353.47 393.80
  A 1.62 1.60 -62.3 0 0 353.16 392.79
  Q 351.70 390.74 349.17 390.03
  Q 348.57 389.86 349.03 389.44
  L 349.23 389.26
  A 0.40 0.40 0.0 0 0 349.28 388.73
  Q 348.45 387.60 348.29 386.15
  Q 348.23 385.63 347.93 385.21
  L 344.49 380.47
  A 1.18 1.16 -57.0 0 1 344.30 379.54
  L 344.55 378.45
  A 0.81 0.81 0.0 0 0 344.13 377.55
  Q 343.06 377.00 341.82 376.93
  A 1.49 1.43 -21.1 0 1 340.91 376.55
  C 338.85 374.62 341.13 369.50 336.61 370.54
  A 0.64 0.63 -11.7 0 1 335.84 370.04
  L 335.65 369.08
  A 1.03 1.03 0.0 0 0 335.06 368.33
  L 333.85 367.78
  Q 333.44 367.59 333.18 367.24
  L 331.01 364.30
  A 0.77 0.76 43.9 0 1 330.99 363.43
  Q 331.20 363.13 331.27 362.75
  Q 331.52 361.60 330.68 362.44
  L 330.10 363.02
  A 0.62 0.62 0.0 0 1 329.39 363.15
  L 326.98 362.00
  A 0.80 0.80 0.0 0 1 326.57 361.01
  L 327.12 359.46
  A 0.52 0.52 0.0 0 0 326.59 358.77
  Q 324.43 358.95 323.35 357.14
  A 0.29 0.11 61.4 0 1 323.31 356.81
  L 323.63 356.74
  A 0.26 0.26 0.0 0 0 323.79 356.36
  Q 321.77 352.90 317.75 352.46
  L 363.75 324.21
  Z"
/>
<path fill="#336aaf" d="
  M 153.50 325.71
  L 235.75 376.96
  L 235.54 378.25
  L 235.75 395.46
  L 235.50 395.54
  L 140.25 334.79
  L 141.04 334.35
  A 0.39 0.38 60.2 0 0 141.18 333.82
  L 141.04 333.59
  A 0.20 0.19 53.7 0 1 141.07 333.36
  Q 145.13 329.49 150.55 328.11
  A 1.14 1.13 2.4 0 0 151.34 327.39
  L 151.67 326.47
  A 0.32 0.32 0.0 0 1 152.14 326.30
  L 152.85 326.70
  Q 154.45 327.61 153.17 326.29
  L 152.97 326.08
  Q 152.69 325.79 153.09 325.75
  L 153.50 325.71
  Z"
/>
<path fill="#3e9af0" d="
  M 138.00 333.46
  L 140.25 334.79
  L 235.50 395.54
  C 235.25 435.91 235.73 476.40 235.86 516.80
  C 235.05 518.44 233.15 517.75 231.92 516.87
  C 171.82 473.47 111.82 429.94 51.00 387.54
  Q 51.74 387.44 51.96 386.80
  A 1.28 1.27 40.6 0 0 51.88 385.81
  Q 50.31 382.84 53.56 381.69
  A 1.40 1.38 3.1 0 0 54.36 380.98
  L 55.47 378.67
  A 0.76 0.75 19.1 0 1 56.33 378.26
  Q 58.08 378.65 59.07 377.13
  A 1.27 1.24 14.2 0 1 60.05 376.56
  Q 61.41 376.46 62.13 375.27
  A 0.74 0.73 -66.3 0 1 62.94 374.95
  Q 64.60 375.39 65.42 374.09
  Q 65.78 373.52 66.29 373.07
  L 71.17 368.86
  Q 71.53 368.55 71.98 368.45
  Q 75.19 367.71 77.77 365.63
  A 1.26 1.23 -60.9 0 1 78.67 365.36
  C 80.22 365.52 82.01 365.53 81.73 363.35
  A 0.79 0.79 0.0 0 1 82.07 362.60
  C 85.89 360.11 90.11 359.65 93.75 357.66
  C 102.24 353.01 110.84 348.78 119.24 343.79
  C 123.80 341.09 131.71 339.24 132.73 334.52
  Q 132.85 333.96 133.03 334.51
  L 133.34 335.44
  Q 133.61 336.27 134.16 335.60
  L 135.70 333.74
  A 0.35 0.35 0.0 0 1 136.16 333.67
  Q 137.15 334.31 138.00 333.46
  Z"
/>
<path fill="#5260e2" d="
  M 317.75 352.46
  Q 321.77 352.90 323.79 356.36
  A 0.26 0.26 0.0 0 1 323.63 356.74
  L 323.31 356.81
  A 0.29 0.11 61.4 0 0 323.35 357.14
  Q 324.43 358.95 326.59 358.77
  A 0.52 0.52 0.0 0 1 327.12 359.46
  L 326.57 361.01
  A 0.80 0.80 0.0 0 0 326.98 362.00
  L 329.39 363.15
  A 0.62 0.62 0.0 0 0 330.10 363.02
  L 330.68 362.44
  Q 331.52 361.60 331.27 362.75
  Q 331.20 363.13 330.99 363.43
  A 0.77 0.76 43.9 0 0 331.01 364.30
  L 333.18 367.24
  Q 333.44 367.59 333.85 367.78
  L 335.06 368.33
  A 1.03 1.03 0.0 0 1 335.65 369.08
  L 335.84 370.04
  A 0.64 0.63 -11.7 0 0 336.61 370.54
  C 341.13 369.50 338.85 374.62 340.91 376.55
  A 1.49 1.43 -21.1 0 0 341.82 376.93
  Q 343.06 377.00 344.13 377.55
  A 0.81 0.81 0.0 0 1 344.55 378.45
  L 344.30 379.54
  A 1.18 1.16 -57.0 0 0 344.49 380.47
  L 347.93 385.21
  Q 348.23 385.63 348.29 386.15
  Q 348.45 387.60 349.28 388.73
  A 0.40 0.40 0.0 0 1 349.23 389.26
  L 349.03 389.44
  Q 348.57 389.86 349.17 390.03
  Q 351.70 390.74 353.16 392.79
  A 1.62 1.60 -62.3 0 1 353.47 393.80
  Q 353.42 396.06 355.61 396.27
  A 1.14 1.14 0.0 0 1 356.40 396.71
  Q 358.58 399.55 361.66 401.31
  A 1.81 1.81 0.0 0 1 362.38 402.09
  Q 363.35 404.18 365.71 404.70
  A 1.14 1.14 0.0 0 1 366.53 405.43
  Q 367.15 407.23 368.95 407.38
  A 1.14 1.14 0.0 0 1 369.77 407.83
  L 371.93 410.62
  A 0.97 0.94 70.5 0 0 372.68 410.99
  Q 376.68 411.03 379.66 413.54
  A 0.94 0.93 -66.1 0 1 379.98 414.38
  L 379.79 415.75
  Q 315.83 460.92 251.93 506.17
  Q 244.40 511.51 235.86 516.80
  C 235.73 476.40 235.25 435.91 235.50 395.54
  L 235.75 395.46
  Q 245.04 395.89 254.25 390.50
  Q 286.19 371.79 317.75 352.46
  Z"
/>
</g>
</svg>
