<?xml version="1.0" encoding="UTF-8" standalone="no"?>
<!DOCTYPE svg PUBLIC "-//W3C//DTD SVG 1.1//EN" "http://www.w3.org/Graphics/SVG/1.1/DTD/svg11.dtd">
<svg xmlns="http://www.w3.org/2000/svg" version="1.1" viewBox="0 0 800 719">
<g stroke-width="2.00" fill="none" stroke-linecap="butt">
<path stroke="#d82c72" vector-effect="non-scaling-stroke" d="
  M 162.06 0.00
  Q 161.32 0.33 160.49 0.31
  A 0.49 0.48 -89.4 0 0 160.00 0.80
  L 160.01 1.31
  A 0.60 0.60 0.0 0 0 160.43 1.88
  L 165.43 3.39
  A 1.42 1.38 82.9 0 1 166.24 4.04
  C 170.14 10.95 172.63 18.35 176.08 25.19
  C 182.28 37.49 186.61 50.93 191.82 63.71
  C 192.13 64.49 191.82 65.42 192.05 65.94
  C 193.86 69.96 196.18 73.93 197.71 77.86
  C 206.34 99.99 214.16 122.02 225.65 142.91
  A 1.45 1.41 -53.8 0 1 225.79 143.89
  Q 225.26 146.25 227.04 147.67
  A 1.81 1.77 10.2 0 1 227.63 148.50
  Q 228.42 150.80 228.04 153.25"
/>
<path stroke="#db306c" vector-effect="non-scaling-stroke" d="
  M 228.04 153.25
  Q 210.96 163.88 193.29 173.50"
/>
<path stroke="#ba367e" vector-effect="non-scaling-stroke" d="
  M 193.29 173.50
  L 195.72 170.32
  Q 196.77 168.94 195.79 167.52
  L 193.08 163.61
  A 0.82 0.81 72.1 0 0 192.39 163.25
  L 191.84 163.25
  A 0.89 0.89 0.0 0 1 191.08 162.85
  Q 188.55 159.07 187.36 154.67
  C 186.89 152.92 184.20 149.70 183.13 147.61
  Q 171.77 125.58 162.25 102.69
  Q 160.94 99.55 159.26 94.12
  C 157.34 87.93 154.39 81.28 152.58 75.90
  C 149.53 66.86 145.99 59.62 143.02 51.29
  C 140.41 43.96 136.35 37.56 134.52 29.97
  Q 132.98 23.61 129.58 17.93
  A 0.13 0.07 53.6 0 1 129.56 17.81
  L 129.75 17.62
  A 0.17 0.17 0.0 0 0 129.71 17.34
  L 129.12 17.04
  A 0.47 0.47 0.0 0 1 128.91 16.42
  Q 129.09 16.05 129.46 15.75"
/>
<path stroke="#ee385a" vector-effect="non-scaling-stroke" d="
  M 278.82 67.69
  Q 277.92 68.61 277.66 69.74
  A 0.63 0.61 -64.9 0 0 277.88 70.37
  Q 278.48 70.84 278.22 71.56
  A 0.35 0.35 0.0 0 1 277.66 71.70
  Q 276.92 71.03 276.21 71.60
  A 0.75 0.74 37.4 0 1 275.42 71.70
  L 274.30 71.16
  Q 273.39 70.72 274.01 71.53
  L 274.30 71.91
  Q 274.70 72.43 274.05 72.35
  Q 273.59 72.30 273.33 71.92
  Q 271.80 69.70 272.78 72.24
  Q 274.09 75.60 274.01 79.19
  A 1.28 1.24 -65.9 0 0 274.31 80.01
  Q 278.52 84.90 278.70 91.18
  C 278.86 96.44 280.53 100.98 281.76 105.98
  C 282.62 109.48 282.48 114.05 283.99 118.10
  A 1.23 1.21 46.1 0 1 283.98 118.99
  L 283.50 120.21"
/>
<path stroke="#ec2e65" vector-effect="non-scaling-stroke" d="
  M 283.50 120.21
  Q 256.12 137.32 228.04 153.25"
/>
<path stroke="#cd3871" vector-effect="non-scaling-stroke" d="
  M 193.29 173.50
  L 175.25 183.79"
/>
<path stroke="#99498c" vector-effect="non-scaling-stroke" d="
  M 175.25 183.79
  C 176.17 181.89 176.27 180.17 174.87 178.35
  C 168.60 170.17 165.65 160.67 161.19 151.76
  C 153.52 136.46 148.57 124.88 141.34 107.40
  A 1.06 1.05 44.6 0 1 141.33 106.62
  Q 141.54 106.08 140.85 105.80
  A 1.21 1.20 -1.2 0 1 140.20 105.18
  Q 136.46 96.89 133.25 88.37
  Q 132.97 87.63 132.60 86.92
  Q 128.06 78.19 124.60 70.42
  Q 119.49 58.95 114.57 47.39
  C 114.29 46.74 113.23 45.81 112.99 45.21
  Q 110.09 37.87 107.13 30.53
  A 0.83 0.80 -6.1 0 0 106.49 30.03
  Q 106.12 29.97 105.75 29.71"
/>
<path stroke="#ba447a" vector-effect="non-scaling-stroke" d="
  M 175.25 183.79
  L 158.08 192.54
  A 1.34 1.32 -43.7 0 1 156.82 192.52
  C 149.58 188.48 142.17 183.18 135.87 179.39
  Q 127.87 174.58 120.00 169.54"
/>
<path stroke="#6b69a1" vector-effect="non-scaling-stroke" d="
  M 120.00 169.54
  Q 120.45 169.25 121.02 169.20
  A 0.72 0.72 0.0 0 0 121.64 168.67
  Q 122.05 167.17 121.55 166.24
  C 116.72 157.24 109.28 146.64 104.44 136.87
  C 98.04 123.95 92.49 110.02 86.34 97.74
  Q 78.34 81.79 70.49 65.76
  A 0.40 0.39 56.8 0 1 70.59 65.28
  C 70.92 64.98 66.42 56.00 65.91 54.93
  A 1.36 1.34 -51.0 0 1 65.82 53.99
  L 65.96 53.50"
/>
<path stroke="#9f5886" vector-effect="non-scaling-stroke" d="
  M 120.00 169.54
  C 103.48 160.38 90.96 152.81 76.33 144.65"
/>
<path stroke="#4487b2" vector-effect="non-scaling-stroke" d="
  M 76.33 144.65
  Q 68.02 140.00 59.75 135.25
  Q 56.98 133.66 55.96 132.75"
/>
<path stroke="#3d8eb5" vector-effect="non-scaling-stroke" d="
  M 55.96 132.75
  C 55.61 131.03 55.59 129.08 55.05 127.50
  C 49.73 111.95 38.56 100.53 32.90 85.33
  Q 31.01 80.26 29.01 75.16"
/>
<path stroke="#f13c55" vector-effect="non-scaling-stroke" d="
  M 321.71 214.25
  Q 321.37 210.40 321.49 206.52
  C 321.59 202.94 320.30 200.08 319.89 196.55
  A 0.61 0.60 87.3 0 0 319.30 196.01
  L 318.61 196.00
  A 0.74 0.73 -10.2 0 1 317.94 195.54
  C 314.62 187.57 315.06 176.70 315.58 168.48
  A 2.03 1.96 -57.4 0 0 315.37 167.43
  Q 314.41 165.53 314.47 163.45
  A 0.19 0.19 0.0 0 0 314.28 163.25
  L 314.00 163.25
  A 0.14 0.14 0.0 0 0 313.86 163.42
  Q 314.40 165.80 314.83 168.21
  Q 315.31 170.94 314.53 168.28
  L 314.35 167.68
  Q 313.70 165.48 314.05 167.74
  Q 314.29 169.25 314.69 170.69
  A 0.53 0.53 0.0 0 1 314.17 171.37
  C 313.07 171.34 312.95 168.00 312.82 167.14
  C 312.31 163.93 310.18 161.09 309.46 157.77
  C 308.07 151.29 305.31 145.70 304.14 139.08
  C 303.63 136.22 302.38 133.72 301.80 130.80
  A 0.34 0.34 0.0 0 0 301.51 130.53
  L 301.23 130.51
  A 0.24 0.24 0.0 0 1 301.02 130.31
  L 298.82 117.54
  A 1.48 1.47 -72.5 0 0 298.41 116.75
  L 297.13 115.45
  A 0.63 0.62 -36.7 0 0 296.36 115.34
  Q 296.01 115.54 295.59 115.51
  Q 294.86 115.45 295.47 115.05
  L 315.73 101.59
  Q 316.43 101.12 315.64 100.83
  Q 314.59 100.44 313.47 101.22
  Q 299.69 110.82 283.50 120.21"
/>
<path stroke="#3298ba" vector-effect="non-scaling-stroke" d="
  M 55.96 132.75
  Q 35.52 120.26 15.33 107.38
  C 12.89 105.82 9.36 104.27 6.59 102.20
  A 0.80 0.79 48.2 0 0 5.72 102.15
  L 5.32 102.37"
/>
<path stroke="#18b5c3" vector-effect="non-scaling-stroke" d="
  M 5.32 102.37
  Q 4.62 99.67 6.22 97.39
  A 0.41 0.41 0.0 0 0 6.08 96.79
  L 5.04 96.25"
/>
<path stroke="#1faec0" vector-effect="non-scaling-stroke" d="
  M 5.32 102.37
  C 27.22 118.53 51.50 132.31 76.46 146.25"
/>
<path stroke="#797f94" vector-effect="non-scaling-stroke" d="
  M 76.46 146.25
  Q 78.56 148.13 81.18 149.10
  A 1.25 1.25 0.0 0 1 81.85 149.70
  C 82.25 150.47 83.01 150.46 83.41 150.70
  Q 96.77 158.85 110.25 166.79"
/>
<path stroke="#0fbfc6" vector-effect="non-scaling-stroke" d="
  M 110.25 166.79
  Q 108.41 167.73 107.34 169.53
  A 0.79 0.77 -74.3 0 1 106.67 169.92
  Q 101.09 169.92 96.51 166.96
  A 0.77 0.77 0.0 0 0 95.41 167.28
  Q 94.10 170.05 95.49 172.56
  C 97.11 175.50 98.07 177.79 99.83 180.03
  A 0.64 0.63 60.5 0 0 100.55 180.24
  C 101.93 179.72 103.80 184.58 104.35 186.05
  A 0.53 0.53 0.0 0 1 104.21 186.62
  C 103.78 187.02 104.70 194.10 104.95 195.90
  C 105.86 202.46 103.31 205.88 101.50 211.56
  C 98.01 222.54 88.45 229.27 81.47 237.97
  Q 79.48 240.44 70.89 249.66
  C 69.61 251.03 68.62 253.02 66.73 254.48
  C 62.66 257.63 59.69 262.42 56.46 265.49
  Q 53.46 268.35 50.38 271.09
  Q 50.01 271.42 49.83 271.88
  C 48.79 274.62 46.17 275.17 44.90 278.13
  C 44.28 279.59 43.33 280.13 42.16 281.04
  A 1.00 0.97 -23.6 0 0 41.78 281.97
  Q 41.92 282.94 41.05 283.34
  A 1.12 1.08 82.9 0 0 40.44 284.15
  C 39.88 287.34 36.84 291.54 40.26 294.01
  C 42.45 295.60 47.97 297.60 48.00 302.04"
/>
<path stroke="#db306c" vector-effect="non-scaling-stroke" d="
  M 268.95 304.69
  Q 267.22 301.04 267.22 296.97
  C 267.23 287.30 263.43 278.13 261.60 269.22
  C 259.19 257.48 256.31 247.96 254.32 239.33
  C 253.47 235.67 249.69 226.49 245.23 226.26
  Q 241.21 226.05 238.28 224.74
  A 0.93 0.92 -84.2 0 1 237.75 224.09
  L 237.50 222.96"
/>
<path stroke="#78213c" vector-effect="non-scaling-stroke" d="
  M 237.50 222.96
  Q 259.99 182.90 273.97 160.51
  Q 275.96 157.31 276.42 155.17
  A 0.84 0.84 0.0 0 0 276.09 154.32
  Q 270.78 150.45 264.87 147.52
  A 0.51 0.50 -61.5 0 0 264.21 147.72
  L 252.47 168.24"
/>
<path stroke="#db306c" vector-effect="non-scaling-stroke" d="
  M 252.47 168.24
  Q 251.15 167.17 251.28 165.67
  Q 251.33 165.17 251.17 164.70
  C 249.79 160.51 250.82 156.41 249.67 152.00
  Q 249.54 151.51 249.67 151.01
  Q 250.60 147.39 247.79 145.30
  A 0.30 0.28 28.0 0 1 247.68 144.97
  L 247.78 144.66
  Q 248.08 143.76 247.26 144.25
  L 215.00 163.79"
/>
<path stroke="#cd3871" vector-effect="non-scaling-stroke" d="
  M 215.00 163.79
  C 206.08 169.04 197.55 175.38 188.10 179.57
  A 0.18 0.16 -14.9 0 0 188.00 179.72
  L 188.00 180.00
  A 0.38 0.35 76.5 0 1 187.82 180.32
  L 174.61 187.86"
/>
<path stroke="#ba447a" vector-effect="non-scaling-stroke" d="
  M 174.61 187.86
  L 161.33 195.11
  A 1.04 1.04 0.0 0 0 160.78 196.01
  Q 160.02 225.14 160.30 253.76
  C 160.62 285.69 160.17 317.62 160.64 349.56
  Q 160.71 354.32 162.25 368.71"
/>
<path stroke="#9f5886" vector-effect="non-scaling-stroke" d="
  M 152.96 368.00
  C 153.42 366.99 153.75 366.85 153.75 365.60
  Q 153.73 337.05 153.71 308.50"
/>
<path stroke="#94628b" vector-effect="non-scaling-stroke" d="
  M 153.71 308.50
  L 153.90 249.99"
/>
<path stroke="#847391" vector-effect="non-scaling-stroke" d="
  M 153.90 249.99
  L 153.81 196.40
  A 2.87 2.86 16.8 0 0 152.52 194.01
  C 151.14 193.10 149.72 191.74 148.35 190.83
  Q 129.59 178.34 110.25 166.79"
/>
<path stroke="#94628b" vector-effect="non-scaling-stroke" d="
  M 76.46 146.25
  Q 76.22 145.63 76.33 144.65"
/>
<path stroke="#651f49" vector-effect="non-scaling-stroke" d="
  M 252.47 168.24
  L 227.96 209.75"
/>
<path stroke="#ba367e" vector-effect="non-scaling-stroke" d="
  M 227.96 209.75
  Q 227.61 209.84 227.31 209.78
  A 0.78 0.78 0.0 0 1 226.69 209.16
  C 226.03 205.97 227.42 203.26 227.66 200.65
  Q 227.90 198.05 228.44 193.75
  C 229.69 183.69 225.38 168.25 215.00 163.79"
/>
<path stroke="#651f49" vector-effect="non-scaling-stroke" d="
  M 237.50 222.96
  L 224.25 245.21"
/>
<path stroke="#57264e" vector-effect="non-scaling-stroke" d="
  M 224.25 245.21
  C 219.16 253.61 214.41 262.84 209.58 270.70
  Q 198.75 288.36 188.25 306.21"
/>
<path stroke="#443257" vector-effect="non-scaling-stroke" d="
  M 188.25 306.21
  C 183.53 314.29 180.91 320.00 176.11 323.36
  A 1.43 1.38 -57.8 0 1 175.13 323.60
  Q 170.03 322.95 166.06 319.67
  A 2.11 2.11 0.0 0 1 165.45 317.24
  C 170.55 304.89 178.37 292.70 185.29 281.25"
/>
<path stroke="#57264e" vector-effect="non-scaling-stroke" d="
  M 185.29 281.25
  L 227.96 209.75"
/>
<path stroke="#99498c" vector-effect="non-scaling-stroke" d="
  M 185.29 281.25
  Q 183.69 278.27 183.73 274.06
  C 183.84 264.29 183.36 253.03 182.03 242.37
  Q 178.64 215.10 174.61 187.86"
/>
<path stroke="#2aa2bd" vector-effect="non-scaling-stroke" d="
  M 153.90 249.99
  Q 152.65 253.07 152.48 256.43
  A 0.77 0.77 0.0 0 1 151.99 257.10
  Q 147.53 258.79 144.53 262.27
  C 140.63 266.80 135.61 271.15 132.67 276.35
  C 130.74 279.77 127.14 283.51 125.59 285.74
  C 122.52 290.14 119.39 294.11 116.29 298.79
  C 114.14 302.02 111.68 304.37 109.83 307.98
  C 107.31 312.92 103.07 317.53 100.07 322.32
  C 98.54 324.76 98.70 326.71 98.01 328.54
  Q 97.27 330.53 96.46 332.50"
/>
<path stroke="#99498c" vector-effect="non-scaling-stroke" d="
  M 188.25 306.21
  Q 190.12 307.26 190.95 309.29
  A 0.66 0.63 5.2 0 0 191.21 309.59
  L 191.58 309.81
  A 0.80 0.78 11.1 0 1 191.96 310.36
  Q 195.57 330.52 195.67 351.00"
/>
<path stroke="#ba367e" vector-effect="non-scaling-stroke" d="
  M 248.35 317.09
  Q 247.32 307.52 244.72 298.51
  C 244.48 297.67 244.58 296.21 244.31 295.18
  C 242.61 288.56 231.26 247.51 224.99 246.72
  A 0.37 0.37 0.0 0 1 224.68 246.24
  Q 224.89 245.54 224.25 245.21"
/>
<path stroke="#4487b2" vector-effect="non-scaling-stroke" d="
  M 153.71 308.50
  L 152.80 314.95
  Q 152.73 315.40 152.62 314.97
  L 152.00 312.53
  A 0.60 0.60 0.0 0 0 151.18 312.12
  C 148.47 313.29 145.65 313.96 143.44 315.99
  Q 139.41 319.67 135.61 323.60
  Q 134.66 324.58 133.98 325.76
  L 120.81 348.53"
/>
<path stroke="#ec2e65" vector-effect="non-scaling-stroke" d="
  M 662.79 368.00
  Q 662.41 368.54 661.70 368.60
  Q 661.11 368.66 661.60 368.98
  Q 662.60 369.65 661.75 370.61
  A 0.42 0.41 59.2 0 0 661.66 370.98
  L 661.76 371.34
  A 0.93 0.93 0.0 0 1 661.68 372.01
  Q 660.28 374.52 662.31 375.94
  Q 666.18 378.66 667.92 381.59
  C 669.10 383.59 670.59 384.97 671.68 387.06
  Q 672.99 389.56 675.58 391.78
  Q 675.85 392.00 675.50 392.00
  L 675.24 392.00
  A 0.16 0.16 0.0 0 0 675.10 392.23
  Q 680.27 401.63 684.17 414.44
  C 686.84 423.23 691.83 435.56 695.29 447.92
  C 696.64 452.74 699.17 456.75 700.50 461.95
  Q 701.29 465.03 702.70 467.74
  Q 706.03 474.11 708.59 480.85"
/>
<path stroke="#ee385a" vector-effect="non-scaling-stroke" d="
  M 708.59 480.85
  Q 688.98 495.19 667.93 507.95
  C 663.40 510.69 655.38 516.19 648.54 519.50"
/>
<path stroke="#d82c72" vector-effect="non-scaling-stroke" d="
  M 648.54 519.50
  C 649.45 518.72 649.79 516.93 651.17 517.19
  A 0.99 0.99 0.0 0 0 652.07 516.90
  L 653.62 515.27
  A 0.82 0.81 58.4 0 0 653.81 514.45
  C 652.76 511.09 652.03 507.74 650.52 504.58
  Q 641.84 486.39 633.46 468.05
  C 631.81 464.43 629.01 460.82 627.46 456.33
  C 624.54 447.91 619.67 440.89 616.47 432.91
  Q 609.27 414.95 600.53 397.68
  C 599.83 396.29 599.89 394.29 598.86 392.82
  C 594.34 386.33 590.51 378.99 587.38 371.27
  C 584.77 364.81 581.37 355.73 576.00 350.79"
/>
<path stroke="#dd3a62" vector-effect="non-scaling-stroke" d="
  M 648.54 519.50
  L 647.50 520.29"
/>
<path stroke="#db306c" vector-effect="non-scaling-stroke" d="
  M 647.50 520.29
  L 618.30 537.00"
/>
<path stroke="#ba367e" vector-effect="non-scaling-stroke" d="
  M 618.30 537.00
  Q 616.94 532.06 612.74 529.25
  C 611.26 528.26 610.38 526.97 609.34 525.64
  A 1.37 1.33 -64.7 0 1 609.04 524.76
  C 609.06 523.74 606.30 517.88 605.82 517.22
  C 603.28 513.76 601.90 509.68 599.70 506.16
  C 597.35 502.39 595.84 498.09 593.80 494.43
  Q 590.81 489.06 588.57 483.32
  A 0.54 0.53 -0.9 0 0 588.23 483.00
  C 587.82 482.85 578.52 463.08 577.61 460.96
  C 573.26 450.86 568.04 441.29 563.94 431.03
  Q 560.66 422.80 558.00 417.67
  C 554.75 411.41 550.87 405.18 548.19 398.68
  C 547.78 397.69 545.56 391.90 544.75 391.90
  A 0.64 0.62 -7.9 0 1 544.14 391.45
  Q 541.86 383.94 537.63 377.34
  A 1.53 1.50 28.8 0 1 537.38 376.51
  Q 537.38 375.55 536.15 375.64
  A 0.12 0.12 0.0 0 0 536.05 375.82
  L 536.19 376.06
  Q 536.64 376.86 535.55 376.41
  Q 535.31 376.31 535.21 376.00"
/>
<path stroke="#f13c55" vector-effect="non-scaling-stroke" d="
  M 768.21 441.16
  Q 739.54 457.63 713.77 477.52
  Q 711.49 479.28 708.59 480.85"
/>
<path stroke="#cd3871" vector-effect="non-scaling-stroke" d="
  M 618.30 537.00
  Q 612.47 539.55 608.05 543.12
  A 1.68 1.67 -49.7 0 1 606.17 543.28
  L 588.00 533.04"
/>
<path stroke="#99498c" vector-effect="non-scaling-stroke" d="
  M 588.00 533.04
  L 591.00 532.97
  A 0.33 0.33 0.0 0 0 591.29 532.51
  C 588.61 526.39 584.08 520.88 579.11 514.93
  Q 575.76 510.93 572.21 503.52
  Q 568.67 496.13 555.70 474.09
  C 553.17 469.79 551.02 465.51 548.78 461.13
  C 545.93 455.55 541.47 448.17 538.39 441.33
  C 535.31 434.48 527.13 421.78 522.51 410.81
  C 520.03 404.93 516.41 399.01 513.90 393.31
  A 1.27 1.27 0.0 0 0 513.24 392.65
  Q 511.19 391.75 512.46 389.75"
/>
<path stroke="#ba447a" vector-effect="non-scaling-stroke" d="
  M 588.00 533.04
  L 549.50 510.79"
/>
<path stroke="#7b5d9a" vector-effect="non-scaling-stroke" d="
  M 549.50 510.79
  C 552.52 507.69 542.75 499.48 539.91 497.48
  Q 533.17 492.73 529.67 488.07
  Q 525.23 482.16 514.25 462.42
  Q 502.90 442.04 491.46 421.72
  Q 489.34 417.96 487.76 414.24
  Q 486.12 410.40 484.53 406.51"
/>
<path stroke="#af4b7f" vector-effect="non-scaling-stroke" d="
  M 549.50 510.79
  C 537.23 503.75 524.76 495.10 513.58 488.47
  Q 499.01 479.81 484.50 471.04"
/>
<path stroke="#5f71a6" vector-effect="non-scaling-stroke" d="
  M 484.50 471.04
  C 486.87 468.54 481.52 465.55 480.02 463.97
  Q 478.23 462.08 476.27 460.83
  Q 471.49 457.76 467.71 453.51
  Q 466.21 451.83 464.18 450.68
  C 458.92 447.70 452.62 442.20 450.83 436.11
  C 450.31 434.34 449.44 433.38 447.75 432.96"
/>
<path stroke="#9f5886" vector-effect="non-scaling-stroke" d="
  M 484.50 471.04
  Q 468.86 462.05 452.77 453.91
  C 449.47 452.24 446.09 449.97 442.67 448.16"
/>
<path stroke="#ee385a" vector-effect="non-scaling-stroke" d="
  M 767.04 606.26
  Q 766.26 607.03 765.84 607.98
  A 0.40 0.39 15.6 0 1 765.42 608.21
  L 762.72 607.88
  A 1.19 1.18 3.6 0 1 761.68 606.71
  Q 761.66 603.81 758.74 603.39
  A 0.54 0.53 5.8 0 1 758.28 602.83
  L 758.42 600.93
  A 0.86 0.85 17.4 0 0 758.00 600.13
  Q 752.44 596.91 748.66 591.79
  C 746.90 589.41 744.36 587.40 743.05 585.45
  C 738.35 578.48 732.74 572.62 727.60 566.04
  C 724.80 562.47 721.40 559.81 718.38 556.41
  C 715.16 552.79 708.99 546.79 704.53 544.97
  Q 704.03 544.77 703.69 544.35
  Q 702.78 543.18 701.38 542.72
  Q 701.17 542.66 701.34 542.52
  L 701.57 542.33
  Q 702.42 541.65 701.33 542.20
  Q 700.66 542.53 700.04 542.00"
/>
<path stroke="#7b2b32" vector-effect="non-scaling-stroke" d="
  M 700.04 542.00
  L 735.50 484.93
  A 0.35 0.35 0.0 0 0 735.28 484.40
  L 720.79 481.25"
/>
<path stroke="#ee385a" vector-effect="non-scaling-stroke" d="
  M 720.79 481.25
  Q 721.02 479.90 719.75 479.53
  A 1.13 1.12 -53.4 0 0 718.83 479.67
  C 693.40 495.81 673.52 506.96 650.88 520.64
  C 650.27 521.01 649.85 521.60 649.25 522.04"
/>
<path stroke="#f13c55" vector-effect="non-scaling-stroke" d="
  M 649.25 522.04
  Q 647.63 521.87 647.50 520.29"
/>
<path stroke="#ec2e65" vector-effect="non-scaling-stroke" d="
  M 649.25 522.04
  L 643.75 525.52
  A 1.39 1.38 -56.9 0 1 642.82 525.72
  Q 642.25 525.64 642.25 526.08
  A 0.77 0.76 75.0 0 1 641.88 526.74
  L 633.50 531.96"
/>
<path stroke="#db306c" vector-effect="non-scaling-stroke" d="
  M 633.50 531.96
  Q 623.09 538.52 612.53 544.83
  C 610.73 545.91 607.87 545.49 608.54 549.00"
/>
<path stroke="#cd3871" vector-effect="non-scaling-stroke" d="
  M 608.54 549.00
  C 608.51 589.96 608.88 630.98 608.22 671.93
  Q 608.00 685.07 608.40 698.22
  C 608.43 698.99 608.14 699.37 607.50 699.71"
/>
<path stroke="#a85082" vector-effect="non-scaling-stroke" d="
  M 607.50 699.71
  L 602.93 699.56
  A 1.55 1.55 0.0 0 1 601.43 698.00
  L 601.71 659.00"
/>
<path stroke="#ba447a" vector-effect="non-scaling-stroke" d="
  M 601.71 659.00
  L 602.07 548.43
  Q 602.07 546.06 600.08 544.77
  Q 582.47 533.35 564.00 523.54"
/>
<path stroke="#a85082" vector-effect="non-scaling-stroke" d="
  M 564.00 523.54
  L 544.04 512.00"
/>
<path stroke="#847391" vector-effect="non-scaling-stroke" d="
  M 544.04 512.00
  Q 507.61 490.53 471.96 467.78
  C 466.76 464.46 456.43 458.22 448.81 455.33
  Q 448.45 455.19 445.57 453.61
  Q 443.83 452.66 441.79 452.95"
/>
<path stroke="#3e90b4" vector-effect="non-scaling-stroke" d="
  M 544.04 512.00
  L 542.59 514.38
  A 0.68 0.67 22.9 0 1 541.84 514.68
  C 534.25 512.61 526.62 507.55 520.25 503.04"
/>
<path stroke="#3598b8" vector-effect="non-scaling-stroke" d="
  M 520.25 503.04
  Q 506.53 494.15 492.25 486.21"
/>
<path stroke="#2aa2bd" vector-effect="non-scaling-stroke" d="
  M 492.25 486.21
  L 473.75 474.21"
/>
<path stroke="#23a9c0" vector-effect="non-scaling-stroke" d="
  M 473.75 474.21
  Q 471.49 471.97 468.47 471.06
  A 1.87 1.79 -11.5 0 1 467.63 470.53
  Q 465.20 467.82 461.61 467.26
  Q 459.48 466.93 458.59 468.89
  C 457.38 471.56 458.18 473.81 459.65 476.57
  C 461.88 480.75 463.02 485.60 464.67 489.33
  C 469.19 499.53 474.55 507.50 478.04 517.24
  Q 483.23 531.73 488.88 546.05
  Q 490.05 548.99 491.05 551.98
  Q 497.34 570.80 503.88 589.54
  C 505.93 595.41 508.63 601.22 510.41 606.93
  Q 513.94 618.28 517.76 629.51
  Q 518.83 632.65 520.22 637.94
  C 521.81 643.98 523.96 649.44 525.57 655.83
  Q 527.58 663.83 531.37 671.22
  A 1.22 1.17 -57.0 0 1 531.50 671.91
  L 531.46 672.25"
/>
<path stroke="#0fbfc6" vector-effect="non-scaling-stroke" d="
  M 531.46 672.25
  Q 527.16 668.98 522.41 666.44
  C 520.59 665.48 519.18 664.01 517.33 662.97
  C 513.46 660.79 510.35 658.55 506.97 656.11
  C 504.67 654.45 501.36 653.26 498.97 650.93
  C 497.63 649.63 496.08 648.97 494.88 647.32
  C 492.62 644.22 490.20 642.01 488.44 638.77
  C 486.54 635.28 486.09 630.26 484.24 626.04
  C 482.06 621.04 480.59 615.45 478.59 610.83
  Q 468.31 587.19 459.56 562.94
  Q 458.86 561.00 458.23 558.20
  C 457.35 554.27 455.40 550.72 454.45 546.76
  C 452.70 539.51 450.07 532.70 448.32 525.45
  Q 448.30 525.37 446.65 520.24
  C 445.45 516.48 445.99 512.47 444.45 508.69
  C 442.77 504.59 442.40 501.45 441.54 497.50"
/>
<path stroke="#3298ba" vector-effect="non-scaling-stroke" d="
  M 473.75 474.21
  C 469.54 477.52 476.69 486.42 479.64 490.09
  A 1.65 1.63 -67.7 0 1 480.00 490.96
  Q 480.12 492.15 481.12 492.81
  Q 481.54 493.08 481.81 493.50
  C 485.83 499.88 489.91 505.75 492.65 512.89
  C 494.43 517.53 496.38 522.04 497.87 526.79
  C 498.55 528.94 500.08 531.15 500.69 532.89
  Q 505.89 547.93 511.30 562.89
  C 512.04 564.93 512.47 567.97 513.87 570.42
  C 514.72 571.92 514.83 573.63 515.57 575.14
  Q 516.87 577.79 517.10 578.54
  Q 521.02 590.77 525.32 602.87
  C 525.97 604.72 526.10 607.08 527.20 609.16
  C 527.78 610.25 527.25 611.21 527.86 612.33
  Q 530.48 617.16 530.95 619.01
  C 531.93 622.86 533.78 626.70 534.80 630.13
  Q 538.26 641.79 542.58 653.16
  C 543.44 655.40 543.56 658.02 544.24 660.00
  Q 549.02 674.06 553.50 688.25"
/>
<path stroke="#18b5c3" vector-effect="non-scaling-stroke" d="
  M 541.96 681.25
  L 541.61 678.88
  A 0.98 0.98 0.0 0 0 541.07 678.13
  Q 535.98 675.64 531.46 672.25"
/>
<path stroke="#4487b2" vector-effect="non-scaling-stroke" d="
  M 492.25 486.21
  Q 490.53 488.82 492.51 491.25
  C 516.22 520.39 525.95 562.42 539.77 598.49
  Q 547.43 618.48 553.28 639.08
  C 555.80 647.96 559.16 658.01 561.61 667.65
  C 563.00 673.15 565.75 678.95 567.12 684.92
  C 567.80 687.86 569.39 691.78 569.57 695.49
  A 1.39 1.35 63.2 0 1 569.29 696.38
  L 568.46 697.50"
/>
<path stroke="#761c42" vector-effect="non-scaling-stroke" d="
  M 720.79 481.25
  Q 702.54 510.30 683.98 539.16
  C 672.48 557.03 661.81 575.48 650.96 593.75"
/>
<path stroke="#d82c72" vector-effect="non-scaling-stroke" d="
  M 650.96 593.75
  Q 647.90 591.64 648.00 587.99
  C 648.26 578.86 647.48 573.32 645.14 562.55
  C 644.47 559.41 644.45 555.55 643.40 552.00
  C 641.84 546.74 642.06 541.47 641.68 536.12
  C 641.43 532.59 639.35 530.54 635.73 531.62
  Q 634.63 531.95 633.50 531.96"
/>
<path stroke="#761c42" vector-effect="non-scaling-stroke" d="
  M 700.04 542.00
  L 665.54 598.50"
/>
<path stroke="#651f49" vector-effect="non-scaling-stroke" d="
  M 665.54 598.50
  Q 658.11 610.95 650.65 623.49
  C 645.68 631.83 633.04 625.23 638.39 615.91
  Q 644.73 604.86 650.96 593.75"
/>
<path stroke="#5975a9" vector-effect="non-scaling-stroke" d="
  M 520.25 503.04
  C 515.67 507.05 521.19 510.21 523.05 513.21
  C 525.95 517.91 529.43 522.14 531.66 527.01
  C 545.59 557.37 558.87 595.34 568.49 626.06
  C 571.29 635.00 573.96 645.38 576.63 655.08
  C 579.49 665.42 581.89 677.22 584.84 688.24
  C 585.99 692.49 590.11 705.96 587.21 709.00"
/>
<path stroke="#74619d" vector-effect="non-scaling-stroke" d="
  M 564.00 523.54
  Q 563.43 525.25 564.82 525.83
  A 0.50 0.50 0.0 0 1 565.03 526.60
  L 563.97 528.01
  A 1.82 1.82 0.0 0 0 563.62 528.95
  Q 563.23 533.96 565.74 540.05
  C 566.48 541.86 571.80 555.22 572.68 555.57
  A 1.15 1.12 89.7 0 1 573.30 556.20
  Q 574.43 559.05 575.77 561.81
  C 576.31 562.92 575.75 563.97 576.28 565.21
  Q 579.52 572.81 582.33 580.59
  C 583.73 584.48 585.87 588.24 587.48 592.22
  Q 589.37 596.91 591.00 600.09
  C 594.34 606.62 596.11 612.52 598.23 618.94
  C 600.31 625.28 599.47 632.00 600.21 638.60
  C 600.57 641.87 599.10 644.14 600.24 647.79
  A 1.15 1.14 6.7 0 0 600.78 648.47
  C 601.36 648.81 601.37 656.77 601.71 659.00"
/>
<path stroke="#875594" vector-effect="non-scaling-stroke" d="
  M 607.50 699.71
  Q 608.45 701.34 608.47 705.00
  Q 608.50 710.64 612.98 715.37"
/>
<path stroke="#323e5f" vector-effect="non-scaling-stroke" d="
  M 608.54 718.75
  Q 607.13 717.90 605.69 719.00"
/>
<path stroke="#d82c72" vector-effect="non-scaling-stroke" d="
  M 665.54 598.50
  Q 670.83 601.42 672.59 606.93
  C 673.85 610.90 675.79 614.12 676.65 616.83
  C 678.83 623.77 681.55 630.69 682.94 637.73
  C 683.76 641.82 684.18 646.76 685.76 650.59
  C 688.67 657.62 683.20 666.64 678.12 671.15
  A 1.62 1.54 77.3 0 0 677.64 671.95
  C 676.60 676.40 672.38 676.65 669.67 680.07
  C 668.31 681.80 665.55 682.32 664.27 683.20
  Q 662.88 684.15 661.61 685.29
  A 1.05 1.04 -22.0 0 0 661.27 686.08
  L 661.29 687.50"
/>
<path stroke="#ba367e" vector-effect="non-scaling-stroke" d="
  M 633.04 703.75
  Q 634.21 697.64 635.31 691.51
  C 635.43 690.85 634.88 689.40 634.89 688.41
  C 634.91 669.62 631.23 649.72 626.41 630.85
  Q 625.62 627.73 625.44 624.02
  Q 625.17 618.27 623.75 615.24
  Q 622.77 613.15 622.64 611.48
  C 622.32 607.43 621.33 603.97 620.12 600.00
  C 618.57 594.92 618.84 590.19 617.09 584.54
  Q 616.02 581.11 615.79 577.78
  Q 615.21 569.49 614.19 561.22
  C 613.66 557.02 613.99 551.94 613.07 547.22
  A 0.86 0.85 2.9 0 0 612.48 546.57
  Q 609.42 545.67 608.54 549.00"
/>
</g>
<g>
<path fill="#c72e79" d="
  M 157.56 0.00
  L 162.06 0.00
  Q 161.32 0.33 160.49 0.31
  A 0.49 0.48 -89.4 0 0 160.00 0.80
  L 160.01 1.31
  A 0.60 0.60 0.0 0 0 160.43 1.88
  L 165.43 3.39
  A 1.42 1.38 82.9 0 1 166.24 4.04
  C 170.14 10.95 172.63 18.35 176.08 25.19
  C 182.28 37.49 186.61 50.93 191.82 63.71
  C 192.13 64.49 191.82 65.42 192.05 65.94
  C 193.86 69.96 196.18 73.93 197.71 77.86
  C 206.34 99.99 214.16 122.02 225.65 142.91
  A 1.45 1.41 -53.8 0 1 225.79 143.89
  Q 225.26 146.25 227.04 147.67
  A 1.81 1.77 10.2 0 1 227.63 148.50
  Q 228.42 150.80 228.04 153.25
  Q 210.96 163.88 193.29 173.50
  L 195.72 170.32
  Q 196.77 168.94 195.79 167.52
  L 193.08 163.61
  A 0.82 0.81 72.1 0 0 192.39 163.25
  L 191.84 163.25
  A 0.89 0.89 0.0 0 1 191.08 162.85
  Q 188.55 159.07 187.36 154.67
  C 186.89 152.92 184.20 149.70 183.13 147.61
  Q 171.77 125.58 162.25 102.69
  Q 160.94 99.55 159.26 94.12
  C 157.34 87.93 154.39 81.28 152.58 75.90
  C 149.53 66.86 145.99 59.62 143.02 51.29
  C 140.41 43.96 136.35 37.56 134.52 29.97
  Q 132.98 23.61 129.58 17.93
  A 0.13 0.07 53.6 0 1 129.56 17.81
  L 129.75 17.62
  A 0.17 0.17 0.0 0 0 129.71 17.34
  L 129.12 17.04
  A 0.47 0.47 0.0 0 1 128.91 16.42
  Q 129.09 16.05 129.46 15.75
  Q 142.89 6.78 157.56 0.00
  Z"
/>
<path fill="#e9296a" d="
  M 162.06 0.00
  L 167.81 0.00
  L 168.15 1.78
  A 1.02 1.02 0.0 0 0 168.70 2.49
  C 174.40 5.29 180.09 7.90 185.51 11.23
  Q 232.01 39.74 278.82 67.69
  Q 277.92 68.61 277.66 69.74
  A 0.63 0.61 -64.9 0 0 277.88 70.37
  Q 278.48 70.84 278.22 71.56
  A 0.35 0.35 0.0 0 1 277.66 71.70
  Q 276.92 71.03 276.21 71.60
  A 0.75 0.74 37.4 0 1 275.42 71.70
  L 274.30 71.16
  Q 273.39 70.72 274.01 71.53
  L 274.30 71.91
  Q 274.70 72.43 274.05 72.35
  Q 273.59 72.30 273.33 71.92
  Q 271.80 69.70 272.78 72.24
  Q 274.09 75.60 274.01 79.19
  A 1.28 1.24 -65.9 0 0 274.31 80.01
  Q 278.52 84.90 278.70 91.18
  C 278.86 96.44 280.53 100.98 281.76 105.98
  C 282.62 109.48 282.48 114.05 283.99 118.10
  A 1.23 1.21 46.1 0 1 283.98 118.99
  L 283.50 120.21
  Q 256.12 137.32 228.04 153.25
  Q 228.42 150.80 227.63 148.50
  A 1.81 1.77 10.2 0 0 227.04 147.67
  Q 225.26 146.25 225.79 143.89
  A 1.45 1.41 -53.8 0 0 225.65 142.91
  C 214.16 122.02 206.34 99.99 197.71 77.86
  C 196.18 73.93 193.86 69.96 192.05 65.94
  C 191.82 65.42 192.13 64.49 191.82 63.71
  C 186.61 50.93 182.28 37.49 176.08 25.19
  C 172.63 18.35 170.14 10.95 166.24 4.04
  A 1.42 1.38 82.9 0 0 165.43 3.39
  L 160.43 1.88
  A 0.60 0.60 0.0 0 1 160.01 1.31
  L 160.00 0.80
  A 0.49 0.48 -89.4 0 1 160.49 0.31
  Q 161.32 0.33 162.06 0.00
  Z"
/>
<path fill="#ac3d83" d="
  M 129.46 15.75
  Q 129.09 16.05 128.91 16.42
  A 0.47 0.47 0.0 0 0 129.12 17.04
  L 129.71 17.34
  A 0.17 0.17 0.0 0 1 129.75 17.62
  L 129.56 17.81
  A 0.13 0.07 53.6 0 0 129.58 17.93
  Q 132.98 23.61 134.52 29.97
  C 136.35 37.56 140.41 43.96 143.02 51.29
  C 145.99 59.62 149.53 66.86 152.58 75.90
  C 154.39 81.28 157.34 87.93 159.26 94.12
  Q 160.94 99.55 162.25 102.69
  Q 171.77 125.58 183.13 147.61
  C 184.20 149.70 186.89 152.92 187.36 154.67
  Q 188.55 159.07 191.08 162.85
  A 0.89 0.89 0.0 0 0 191.84 163.25
  L 192.39 163.25
  A 0.82 0.81 72.1 0 1 193.08 163.61
  L 195.79 167.52
  Q 196.77 168.94 195.72 170.32
  L 193.29 173.50
  L 175.25 183.79
  C 176.17 181.89 176.27 180.17 174.87 178.35
  C 168.60 170.17 165.65 160.67 161.19 151.76
  C 153.52 136.46 148.57 124.88 141.34 107.40
  A 1.06 1.05 44.6 0 1 141.33 106.62
  Q 141.54 106.08 140.85 105.80
  A 1.21 1.20 -1.2 0 1 140.20 105.18
  Q 136.46 96.89 133.25 88.37
  Q 132.97 87.63 132.60 86.92
  Q 128.06 78.19 124.60 70.42
  Q 119.49 58.95 114.57 47.39
  C 114.29 46.74 113.23 45.81 112.99 45.21
  Q 110.09 37.87 107.13 30.53
  A 0.83 0.80 -6.1 0 0 106.49 30.03
  Q 106.12 29.97 105.75 29.71
  L 129.46 15.75
  Z"
/>
<path fill="#865594" d="
  M 105.75 29.71
  Q 106.12 29.97 106.49 30.03
  A 0.83 0.80 -6.1 0 1 107.13 30.53
  Q 110.09 37.87 112.99 45.21
  C 113.23 45.81 114.29 46.74 114.57 47.39
  Q 119.49 58.95 124.60 70.42
  Q 128.06 78.19 132.60 86.92
  Q 132.97 87.63 133.25 88.37
  Q 136.46 96.89 140.20 105.18
  A 1.21 1.20 -1.2 0 0 140.85 105.80
  Q 141.54 106.08 141.33 106.62
  A 1.06 1.05 44.6 0 0 141.34 107.40
  C 148.57 124.88 153.52 136.46 161.19 151.76
  C 165.65 160.67 168.60 170.17 174.87 178.35
  C 176.27 180.17 176.17 181.89 175.25 183.79
  L 158.08 192.54
  A 1.34 1.32 -43.7 0 1 156.82 192.52
  C 149.58 188.48 142.17 183.18 135.87 179.39
  Q 127.87 174.58 120.00 169.54
  Q 120.45 169.25 121.02 169.20
  A 0.72 0.72 0.0 0 0 121.64 168.67
  Q 122.05 167.17 121.55 166.24
  C 116.72 157.24 109.28 146.64 104.44 136.87
  C 98.04 123.95 92.49 110.02 86.34 97.74
  Q 78.34 81.79 70.49 65.76
  A 0.40 0.39 56.8 0 1 70.59 65.28
  C 70.92 64.98 66.42 56.00 65.91 54.93
  A 1.36 1.34 -51.0 0 1 65.82 53.99
  L 65.96 53.50
  L 105.75 29.71
  Z"
/>
<path fill="#4f7dad" d="
  M 65.96 53.50
  L 65.82 53.99
  A 1.36 1.34 -51.0 0 0 65.91 54.93
  C 66.42 56.00 70.92 64.98 70.59 65.28
  A 0.40 0.39 56.8 0 0 70.49 65.76
  Q 78.34 81.79 86.34 97.74
  C 92.49 110.02 98.04 123.95 104.44 136.87
  C 109.28 146.64 116.72 157.24 121.55 166.24
  Q 122.05 167.17 121.64 168.67
  A 0.72 0.72 0.0 0 1 121.02 169.20
  Q 120.45 169.25 120.00 169.54
  C 103.48 160.38 90.96 152.81 76.33 144.65
  Q 68.02 140.00 59.75 135.25
  Q 56.98 133.66 55.96 132.75
  C 55.61 131.03 55.59 129.08 55.05 127.50
  C 49.73 111.95 38.56 100.53 32.90 85.33
  Q 31.01 80.26 29.01 75.16
  L 65.96 53.50
  Z"
/>
<path fill="#f3464a" d="
  M 278.82 67.69
  C 292.43 75.36 314.70 85.93 320.68 101.22
  Q 321.74 103.93 321.75 107.93
  Q 321.78 161.09 321.71 214.25
  Q 321.37 210.40 321.49 206.52
  C 321.59 202.94 320.30 200.08 319.89 196.55
  A 0.61 0.60 87.3 0 0 319.30 196.01
  L 318.61 196.00
  A 0.74 0.73 -10.2 0 1 317.94 195.54
  C 314.62 187.57 315.06 176.70 315.58 168.48
  A 2.03 1.96 -57.4 0 0 315.37 167.43
  Q 314.41 165.53 314.47 163.45
  A 0.19 0.19 0.0 0 0 314.28 163.25
  L 314.00 163.25
  A 0.14 0.14 0.0 0 0 313.86 163.42
  Q 314.40 165.80 314.83 168.21
  Q 315.31 170.94 314.53 168.28
  L 314.35 167.68
  Q 313.70 165.48 314.05 167.74
  Q 314.29 169.25 314.69 170.69
  A 0.53 0.53 0.0 0 1 314.17 171.37
  C 313.07 171.34 312.95 168.00 312.82 167.14
  C 312.31 163.93 310.18 161.09 309.46 157.77
  C 308.07 151.29 305.31 145.70 304.14 139.08
  C 303.63 136.22 302.38 133.72 301.80 130.80
  A 0.34 0.34 0.0 0 0 301.51 130.53
  L 301.23 130.51
  A 0.24 0.24 0.0 0 1 301.02 130.31
  L 298.82 117.54
  A 1.48 1.47 -72.5 0 0 298.41 116.75
  L 297.13 115.45
  A 0.63 0.62 -36.7 0 0 296.36 115.34
  Q 296.01 115.54 295.59 115.51
  Q 294.86 115.45 295.47 115.05
  L 315.73 101.59
  Q 316.43 101.12 315.64 100.83
  Q 314.59 100.44 313.47 101.22
  Q 299.69 110.82 283.50 120.21
  L 283.98 118.99
  A 1.23 1.21 46.1 0 0 283.99 118.10
  C 282.48 114.05 282.62 109.48 281.76 105.98
  C 280.53 100.98 278.86 96.44 278.70 91.18
  Q 278.52 84.90 274.31 80.01
  A 1.28 1.24 -65.9 0 1 274.01 79.19
  Q 274.09 75.60 272.78 72.24
  Q 271.80 69.70 273.33 71.92
  Q 273.59 72.30 274.05 72.35
  Q 274.70 72.43 274.30 71.91
  L 274.01 71.53
  Q 273.39 70.72 274.30 71.16
  L 275.42 71.70
  A 0.75 0.74 37.4 0 0 276.21 71.60
  Q 276.92 71.03 277.66 71.70
  A 0.35 0.35 0.0 0 0 278.22 71.56
  Q 278.48 70.84 277.88 70.37
  A 0.63 0.61 -64.9 0 1 277.66 69.74
  Q 277.92 68.61 278.82 67.69
  Z"
/>
<path fill="#2b9fbd" d="
  M 29.01 75.16
  Q 31.01 80.26 32.90 85.33
  C 38.56 100.53 49.73 111.95 55.05 127.50
  C 55.59 129.08 55.61 131.03 55.96 132.75
  Q 35.52 120.26 15.33 107.38
  C 12.89 105.82 9.36 104.27 6.59 102.20
  A 0.80 0.79 48.2 0 0 5.72 102.15
  L 5.32 102.37
  Q 4.62 99.67 6.22 97.39
  A 0.41 0.41 0.0 0 0 6.08 96.79
  L 5.04 96.25
  C 10.28 86.46 19.64 80.21 29.01 75.16
  Z"
/>
<path fill="#04cbc8" d="
  M 5.04 96.25
  L 6.08 96.79
  A 0.41 0.41 0.0 0 1 6.22 97.39
  Q 4.62 99.67 5.32 102.37
  C 27.22 118.53 51.50 132.31 76.46 146.25
  Q 78.56 148.13 81.18 149.10
  A 1.25 1.25 0.0 0 1 81.85 149.70
  C 82.25 150.47 83.01 150.46 83.41 150.70
  Q 96.77 158.85 110.25 166.79
  Q 108.41 167.73 107.34 169.53
  A 0.79 0.77 -74.3 0 1 106.67 169.92
  Q 101.09 169.92 96.51 166.96
  A 0.77 0.77 0.0 0 0 95.41 167.28
  Q 94.10 170.05 95.49 172.56
  C 97.11 175.50 98.07 177.79 99.83 180.03
  A 0.64 0.63 60.5 0 0 100.55 180.24
  C 101.93 179.72 103.80 184.58 104.35 186.05
  A 0.53 0.53 0.0 0 1 104.21 186.62
  C 103.78 187.02 104.70 194.10 104.95 195.90
  C 105.86 202.46 103.31 205.88 101.50 211.56
  C 98.01 222.54 88.45 229.27 81.47 237.97
  Q 79.48 240.44 70.89 249.66
  C 69.61 251.03 68.62 253.02 66.73 254.48
  C 62.66 257.63 59.69 262.42 56.46 265.49
  Q 53.46 268.35 50.38 271.09
  Q 50.01 271.42 49.83 271.88
  C 48.79 274.62 46.17 275.17 44.90 278.13
  C 44.28 279.59 43.33 280.13 42.16 281.04
  A 1.00 0.97 -23.6 0 0 41.78 281.97
  Q 41.92 282.94 41.05 283.34
  A 1.12 1.08 82.9 0 0 40.44 284.15
  C 39.88 287.34 36.84 291.54 40.26 294.01
  C 42.45 295.60 47.97 297.60 48.00 302.04
  C 29.16 291.81 18.47 285.81 4.89 272.34
  A 1.00 0.99 62.8 0 0 4.03 272.06
  Q 1.77 272.39 0.00 271.19
  L 0.00 99.94
  Q 3.04 98.78 5.04 96.25
  Z"
/>
<path fill="#ee325f" d="
  M 321.71 214.25
  Q 321.46 236.31 321.07 258.34
  C 320.89 268.65 314.14 277.28 305.30 281.99
  Q 303.10 283.16 301.39 284.88
  Q 295.83 290.48 288.63 293.69
  Q 285.53 295.08 283.11 296.81
  Q 276.54 301.53 268.95 304.69
  Q 267.22 301.04 267.22 296.97
  C 267.23 287.30 263.43 278.13 261.60 269.22
  C 259.19 257.48 256.31 247.96 254.32 239.33
  C 253.47 235.67 249.69 226.49 245.23 226.26
  Q 241.21 226.05 238.28 224.74
  A 0.93 0.92 -84.2 0 1 237.75 224.09
  L 237.50 222.96
  Q 259.99 182.90 273.97 160.51
  Q 275.96 157.31 276.42 155.17
  A 0.84 0.84 0.0 0 0 276.09 154.32
  Q 270.78 150.45 264.87 147.52
  A 0.51 0.50 -61.5 0 0 264.21 147.72
  L 252.47 168.24
  Q 251.15 167.17 251.28 165.67
  Q 251.33 165.17 251.17 164.70
  C 249.79 160.51 250.82 156.41 249.67 152.00
  Q 249.54 151.51 249.67 151.01
  Q 250.60 147.39 247.79 145.30
  A 0.30 0.28 28.0 0 1 247.68 144.97
  L 247.78 144.66
  Q 248.08 143.76 247.26 144.25
  L 215.00 163.79
  C 206.08 169.04 197.55 175.38 188.10 179.57
  A 0.18 0.16 -14.9 0 0 188.00 179.72
  L 188.00 180.00
  A 0.38 0.35 76.5 0 1 187.82 180.32
  L 174.61 187.86
  L 161.33 195.11
  A 1.04 1.04 0.0 0 0 160.78 196.01
  Q 160.02 225.14 160.30 253.76
  C 160.62 285.69 160.17 317.62 160.64 349.56
  Q 160.71 354.32 162.25 368.71
  Q 157.52 369.21 152.96 368.00
  C 153.42 366.99 153.75 366.85 153.75 365.60
  Q 153.73 337.05 153.71 308.50
  L 153.90 249.99
  L 153.81 196.40
  A 2.87 2.86 16.8 0 0 152.52 194.01
  C 151.14 193.10 149.72 191.74 148.35 190.83
  Q 129.59 178.34 110.25 166.79
  Q 96.77 158.85 83.41 150.70
  C 83.01 150.46 82.25 150.47 81.85 149.70
  A 1.25 1.25 0.0 0 0 81.18 149.10
  Q 78.56 148.13 76.46 146.25
  Q 76.22 145.63 76.33 144.65
  C 90.96 152.81 103.48 160.38 120.00 169.54
  Q 127.87 174.58 135.87 179.39
  C 142.17 183.18 149.58 188.48 156.82 192.52
  A 1.34 1.32 -43.7 0 0 158.08 192.54
  L 175.25 183.79
  L 193.29 173.50
  Q 210.96 163.88 228.04 153.25
  Q 256.12 137.32 283.50 120.21
  Q 299.69 110.82 313.47 101.22
  Q 314.59 100.44 315.64 100.83
  Q 316.43 101.12 315.73 101.59
  L 295.47 115.05
  Q 294.86 115.45 295.59 115.51
  Q 296.01 115.54 296.36 115.34
  A 0.63 0.62 -36.7 0 1 297.13 115.45
  L 298.41 116.75
  A 1.48 1.47 -72.5 0 1 298.82 117.54
  L 301.02 130.31
  A 0.24 0.24 0.0 0 0 301.23 130.51
  L 301.51 130.53
  A 0.34 0.34 0.0 0 1 301.80 130.80
  C 302.38 133.72 303.63 136.22 304.14 139.08
  C 305.31 145.70 308.07 151.29 309.46 157.77
  C 310.18 161.09 312.31 163.93 312.82 167.14
  C 312.95 168.00 313.07 171.34 314.17 171.37
  A 0.53 0.53 0.0 0 0 314.69 170.69
  Q 314.29 169.25 314.05 167.74
  Q 313.70 165.48 314.35 167.68
  L 314.53 168.28
  Q 315.31 170.94 314.83 168.21
  Q 314.40 165.80 313.86 163.42
  A 0.14 0.14 0.0 0 1 314.00 163.25
  L 314.28 163.25
  A 0.19 0.19 0.0 0 1 314.47 163.45
  Q 314.41 165.53 315.37 167.43
  A 2.03 1.96 -57.4 0 1 315.58 168.48
  C 315.06 176.70 314.62 187.57 317.94 195.54
  A 0.74 0.73 -10.2 0 0 318.61 196.00
  L 319.30 196.01
  A 0.61 0.60 87.3 0 1 319.89 196.55
  C 320.30 200.08 321.59 202.94 321.49 206.52
  Q 321.37 210.40 321.71 214.25
  Z"
/>
<path fill="#3991b7" d="
  M 55.96 132.75
  Q 56.98 133.66 59.75 135.25
  Q 68.02 140.00 76.33 144.65
  Q 76.22 145.63 76.46 146.25
  C 51.50 132.31 27.22 118.53 5.32 102.37
  L 5.72 102.15
  A 0.80 0.79 48.2 0 1 6.59 102.20
  C 9.36 104.27 12.89 105.82 15.33 107.38
  Q 35.52 120.26 55.96 132.75
  Z"
/>
<path fill="#c72e79" d="
  M 252.47 168.24
  L 227.96 209.75
  Q 227.61 209.84 227.31 209.78
  A 0.78 0.78 0.0 0 1 226.69 209.16
  C 226.03 205.97 227.42 203.26 227.66 200.65
  Q 227.90 198.05 228.44 193.75
  C 229.69 183.69 225.38 168.25 215.00 163.79
  L 247.26 144.25
  Q 248.08 143.76 247.78 144.66
  L 247.68 144.97
  A 0.30 0.28 28.0 0 0 247.79 145.30
  Q 250.60 147.39 249.67 151.01
  Q 249.54 151.51 249.67 152.00
  C 250.82 156.41 249.79 160.51 251.17 164.70
  Q 251.33 165.17 251.28 165.67
  Q 251.15 167.17 252.47 168.24
  Z"
/>
<path fill="#020f19" d="
  M 237.50 222.96
  L 224.25 245.21
  C 219.16 253.61 214.41 262.84 209.58 270.70
  Q 198.75 288.36 188.25 306.21
  C 183.53 314.29 180.91 320.00 176.11 323.36
  A 1.43 1.38 -57.8 0 1 175.13 323.60
  Q 170.03 322.95 166.06 319.67
  A 2.11 2.11 0.0 0 1 165.45 317.24
  C 170.55 304.89 178.37 292.70 185.29 281.25
  L 227.96 209.75
  L 252.47 168.24
  L 264.21 147.72
  A 0.51 0.50 -61.5 0 1 264.87 147.52
  Q 270.78 150.45 276.09 154.32
  A 0.84 0.84 0.0 0 1 276.42 155.17
  Q 275.96 157.31 273.97 160.51
  Q 259.99 182.90 237.50 222.96
  Z"
/>
<path fill="#ac3d83" d="
  M 215.00 163.79
  C 225.38 168.25 229.69 183.69 228.44 193.75
  Q 227.90 198.05 227.66 200.65
  C 227.42 203.26 226.03 205.97 226.69 209.16
  A 0.78 0.78 0.0 0 0 227.31 209.78
  Q 227.61 209.84 227.96 209.75
  L 185.29 281.25
  Q 183.69 278.27 183.73 274.06
  C 183.84 264.29 183.36 253.03 182.03 242.37
  Q 178.64 215.10 174.61 187.86
  L 187.82 180.32
  A 0.38 0.35 76.5 0 0 188.00 180.00
  L 188.00 179.72
  A 0.18 0.16 -14.9 0 1 188.10 179.57
  C 197.55 175.38 206.08 169.04 215.00 163.79
  Z"
/>
<path fill="#1ab3c3" d="
  M 110.25 166.79
  Q 129.59 178.34 148.35 190.83
  C 149.72 191.74 151.14 193.10 152.52 194.01
  A 2.87 2.86 16.8 0 1 153.81 196.40
  L 153.90 249.99
  Q 152.65 253.07 152.48 256.43
  A 0.77 0.77 0.0 0 1 151.99 257.10
  Q 147.53 258.79 144.53 262.27
  C 140.63 266.80 135.61 271.15 132.67 276.35
  C 130.74 279.77 127.14 283.51 125.59 285.74
  C 122.52 290.14 119.39 294.11 116.29 298.79
  C 114.14 302.02 111.68 304.37 109.83 307.98
  C 107.31 312.92 103.07 317.53 100.07 322.32
  C 98.54 324.76 98.70 326.71 98.01 328.54
  Q 97.27 330.53 96.46 332.50
  C 91.11 328.53 84.54 325.80 79.71 322.54
  Q 71.65 317.10 63.79 311.39
  C 58.68 307.69 53.44 305.03 48.00 302.04
  C 47.97 297.60 42.45 295.60 40.26 294.01
  C 36.84 291.54 39.88 287.34 40.44 284.15
  A 1.12 1.08 82.9 0 1 41.05 283.34
  Q 41.92 282.94 41.78 281.97
  A 1.00 0.97 -23.6 0 1 42.16 281.04
  C 43.33 280.13 44.28 279.59 44.90 278.13
  C 46.17 275.17 48.79 274.62 49.83 271.88
  Q 50.01 271.42 50.38 271.09
  Q 53.46 268.35 56.46 265.49
  C 59.69 262.42 62.66 257.63 66.73 254.48
  C 68.62 253.02 69.61 251.03 70.89 249.66
  Q 79.48 240.44 81.47 237.97
  C 88.45 229.27 98.01 222.54 101.50 211.56
  C 103.31 205.88 105.86 202.46 104.95 195.90
  C 104.70 194.10 103.78 187.02 104.21 186.62
  A 0.53 0.53 0.0 0 0 104.35 186.05
  C 103.80 184.58 101.93 179.72 100.55 180.24
  A 0.64 0.63 60.5 0 1 99.83 180.03
  C 98.07 177.79 97.11 175.50 95.49 172.56
  Q 94.10 170.05 95.41 167.28
  A 0.77 0.77 0.0 0 1 96.51 166.96
  Q 101.09 169.92 106.67 169.92
  A 0.79 0.77 -74.3 0 0 107.34 169.53
  Q 108.41 167.73 110.25 166.79
  Z"
/>
<path fill="#865594" d="
  M 174.61 187.86
  Q 178.64 215.10 182.03 242.37
  C 183.36 253.03 183.84 264.29 183.73 274.06
  Q 183.69 278.27 185.29 281.25
  C 178.37 292.70 170.55 304.89 165.45 317.24
  A 2.11 2.11 0.0 0 0 166.06 319.67
  Q 170.03 322.95 175.13 323.60
  A 1.43 1.38 -57.8 0 0 176.11 323.36
  C 180.91 320.00 183.53 314.29 188.25 306.21
  Q 190.12 307.26 190.95 309.29
  A 0.66 0.63 5.2 0 0 191.21 309.59
  L 191.58 309.81
  A 0.80 0.78 11.1 0 1 191.96 310.36
  Q 195.57 330.52 195.67 351.00
  Q 184.98 357.78 173.55 363.68
  C 169.34 365.85 168.18 369.71 162.25 368.71
  Q 160.71 354.32 160.64 349.56
  C 160.17 317.62 160.62 285.69 160.30 253.76
  Q 160.02 225.14 160.78 196.01
  A 1.04 1.04 0.0 0 1 161.33 195.11
  L 174.61 187.86
  Z"
/>
<path fill="#c72e79" d="
  M 237.50 222.96
  L 237.75 224.09
  A 0.93 0.92 -84.2 0 0 238.28 224.74
  Q 241.21 226.05 245.23 226.26
  C 249.69 226.49 253.47 235.67 254.32 239.33
  C 256.31 247.96 259.19 257.48 261.60 269.22
  C 263.43 278.13 267.23 287.30 267.22 296.97
  Q 267.22 301.04 268.95 304.69
  L 248.35 317.09
  Q 247.32 307.52 244.72 298.51
  C 244.48 297.67 244.58 296.21 244.31 295.18
  C 242.61 288.56 231.26 247.51 224.99 246.72
  A 0.37 0.37 0.0 0 1 224.68 246.24
  Q 224.89 245.54 224.25 245.21
  L 237.50 222.96
  Z"
/>
<path fill="#ac3d83" d="
  M 224.25 245.21
  Q 224.89 245.54 224.68 246.24
  A 0.37 0.37 0.0 0 0 224.99 246.72
  C 231.26 247.51 242.61 288.56 244.31 295.18
  C 244.58 296.21 244.48 297.67 244.72 298.51
  Q 247.32 307.52 248.35 317.09
  Q 224.17 330.57 201.46 346.37
  C 199.57 347.69 197.72 349.53 195.67 351.00
  Q 195.57 330.52 191.96 310.36
  A 0.80 0.78 11.1 0 0 191.58 309.81
  L 191.21 309.59
  A 0.66 0.63 5.2 0 1 190.95 309.29
  Q 190.12 307.26 188.25 306.21
  Q 198.75 288.36 209.58 270.70
  C 214.41 262.84 219.16 253.61 224.25 245.21
  Z"
/>
<path fill="#3991b7" d="
  M 153.90 249.99
  L 153.71 308.50
  L 152.80 314.95
  Q 152.73 315.40 152.62 314.97
  L 152.00 312.53
  A 0.60 0.60 0.0 0 0 151.18 312.12
  C 148.47 313.29 145.65 313.96 143.44 315.99
  Q 139.41 319.67 135.61 323.60
  Q 134.66 324.58 133.98 325.76
  L 120.81 348.53
  C 112.30 343.37 104.29 338.65 96.46 332.50
  Q 97.27 330.53 98.01 328.54
  C 98.70 326.71 98.54 324.76 100.07 322.32
  C 103.07 317.53 107.31 312.92 109.83 307.98
  C 111.68 304.37 114.14 302.02 116.29 298.79
  C 119.39 294.11 122.52 290.14 125.59 285.74
  C 127.14 283.51 130.74 279.77 132.67 276.35
  C 135.61 271.15 140.63 266.80 144.53 262.27
  Q 147.53 258.79 151.99 257.10
  A 0.77 0.77 0.0 0 0 152.48 256.43
  Q 152.65 253.07 153.90 249.99
  Z"
/>
<path fill="#4f7dad" d="
  M 153.71 308.50
  Q 153.73 337.05 153.75 365.60
  C 153.75 366.85 153.42 366.99 152.96 368.00
  L 120.81 348.53
  L 133.98 325.76
  Q 134.66 324.58 135.61 323.60
  Q 139.41 319.67 143.44 315.99
  C 145.65 313.96 148.47 313.29 151.18 312.12
  A 0.60 0.60 0.0 0 1 152.00 312.53
  L 152.62 314.97
  Q 152.73 315.40 152.80 314.95
  L 153.71 308.50
  Z"
/>
<path fill="#e9296a" d="
  M 662.79 368.00
  Q 662.41 368.54 661.70 368.60
  Q 661.11 368.66 661.60 368.98
  Q 662.60 369.65 661.75 370.61
  A 0.42 0.41 59.2 0 0 661.66 370.98
  L 661.76 371.34
  A 0.93 0.93 0.0 0 1 661.68 372.01
  Q 660.28 374.52 662.31 375.94
  Q 666.18 378.66 667.92 381.59
  C 669.10 383.59 670.59 384.97 671.68 387.06
  Q 672.99 389.56 675.58 391.78
  Q 675.85 392.00 675.50 392.00
  L 675.24 392.00
  A 0.16 0.16 0.0 0 0 675.10 392.23
  Q 680.27 401.63 684.17 414.44
  C 686.84 423.23 691.83 435.56 695.29 447.92
  C 696.64 452.74 699.17 456.75 700.50 461.95
  Q 701.29 465.03 702.70 467.74
  Q 706.03 474.11 708.59 480.85
  Q 688.98 495.19 667.93 507.95
  C 663.40 510.69 655.38 516.19 648.54 519.50
  C 649.45 518.72 649.79 516.93 651.17 517.19
  A 0.99 0.99 0.0 0 0 652.07 516.90
  L 653.62 515.27
  A 0.82 0.81 58.4 0 0 653.81 514.45
  C 652.76 511.09 652.03 507.74 650.52 504.58
  Q 641.84 486.39 633.46 468.05
  C 631.81 464.43 629.01 460.82 627.46 456.33
  C 624.54 447.91 619.67 440.89 616.47 432.91
  Q 609.27 414.95 600.53 397.68
  C 599.83 396.29 599.89 394.29 598.86 392.82
  C 594.34 386.33 590.51 378.99 587.38 371.27
  C 584.77 364.81 581.37 355.73 576.00 350.79
  C 585.46 345.14 601.00 333.55 612.20 337.77
  Q 614.86 338.77 621.59 342.85
  Q 642.23 355.36 662.79 368.00
  Z"
/>
<path fill="#c72e79" d="
  M 576.00 350.79
  C 581.37 355.73 584.77 364.81 587.38 371.27
  C 590.51 378.99 594.34 386.33 598.86 392.82
  C 599.89 394.29 599.83 396.29 600.53 397.68
  Q 609.27 414.95 616.47 432.91
  C 619.67 440.89 624.54 447.91 627.46 456.33
  C 629.01 460.82 631.81 464.43 633.46 468.05
  Q 641.84 486.39 650.52 504.58
  C 652.03 507.74 652.76 511.09 653.81 514.45
  A 0.82 0.81 58.4 0 1 653.62 515.27
  L 652.07 516.90
  A 0.99 0.99 0.0 0 1 651.17 517.19
  C 649.79 516.93 649.45 518.72 648.54 519.50
  L 647.50 520.29
  L 618.30 537.00
  Q 616.94 532.06 612.74 529.25
  C 611.26 528.26 610.38 526.97 609.34 525.64
  A 1.37 1.33 -64.7 0 1 609.04 524.76
  C 609.06 523.74 606.30 517.88 605.82 517.22
  C 603.28 513.76 601.90 509.68 599.70 506.16
  C 597.35 502.39 595.84 498.09 593.80 494.43
  Q 590.81 489.06 588.57 483.32
  A 0.54 0.53 -0.9 0 0 588.23 483.00
  C 587.82 482.85 578.52 463.08 577.61 460.96
  C 573.26 450.86 568.04 441.29 563.94 431.03
  Q 560.66 422.80 558.00 417.67
  C 554.75 411.41 550.87 405.18 548.19 398.68
  C 547.78 397.69 545.56 391.90 544.75 391.90
  A 0.64 0.62 -7.9 0 1 544.14 391.45
  Q 541.86 383.94 537.63 377.34
  A 1.53 1.50 28.8 0 1 537.38 376.51
  Q 537.38 375.55 536.15 375.64
  A 0.12 0.12 0.0 0 0 536.05 375.82
  L 536.19 376.06
  Q 536.64 376.86 535.55 376.41
  Q 535.31 376.31 535.21 376.00
  L 576.00 350.79
  Z"
/>
<path fill="#ee325f" d="
  M 662.79 368.00
  C 689.38 384.43 716.30 400.36 742.65 417.17
  Q 755.94 425.64 757.37 426.84
  Q 764.25 432.62 768.21 441.16
  Q 739.54 457.63 713.77 477.52
  Q 711.49 479.28 708.59 480.85
  Q 706.03 474.11 702.70 467.74
  Q 701.29 465.03 700.50 461.95
  C 699.17 456.75 696.64 452.74 695.29 447.92
  C 691.83 435.56 686.84 423.23 684.17 414.44
  Q 680.27 401.63 675.10 392.23
  A 0.16 0.16 0.0 0 1 675.24 392.00
  L 675.50 392.00
  Q 675.85 392.00 675.58 391.78
  Q 672.99 389.56 671.68 387.06
  C 670.59 384.97 669.10 383.59 667.92 381.59
  Q 666.18 378.66 662.31 375.94
  Q 660.28 374.52 661.68 372.01
  A 0.93 0.93 0.0 0 0 661.76 371.34
  L 661.66 370.98
  A 0.42 0.41 59.2 0 1 661.75 370.61
  Q 662.60 369.65 661.60 368.98
  Q 661.11 368.66 661.70 368.60
  Q 662.41 368.54 662.79 368.00
  Z"
/>
<path fill="#ac3d83" d="
  M 618.30 537.00
  Q 612.47 539.55 608.05 543.12
  A 1.68 1.67 -49.7 0 1 606.17 543.28
  L 588.00 533.04
  L 591.00 532.97
  A 0.33 0.33 0.0 0 0 591.29 532.51
  C 588.61 526.39 584.08 520.88 579.11 514.93
  Q 575.76 510.93 572.21 503.52
  Q 568.67 496.13 555.70 474.09
  C 553.17 469.79 551.02 465.51 548.78 461.13
  C 545.93 455.55 541.47 448.17 538.39 441.33
  C 535.31 434.48 527.13 421.78 522.51 410.81
  C 520.03 404.93 516.41 399.01 513.90 393.31
  A 1.27 1.27 0.0 0 0 513.24 392.65
  Q 511.19 391.75 512.46 389.75
  L 535.21 376.00
  Q 535.31 376.31 535.55 376.41
  Q 536.64 376.86 536.19 376.06
  L 536.05 375.82
  A 0.12 0.12 0.0 0 1 536.15 375.64
  Q 537.38 375.55 537.38 376.51
  A 1.53 1.50 28.8 0 0 537.63 377.34
  Q 541.86 383.94 544.14 391.45
  A 0.64 0.62 -7.9 0 0 544.75 391.90
  C 545.56 391.90 547.78 397.69 548.19 398.68
  C 550.87 405.18 554.75 411.41 558.00 417.67
  Q 560.66 422.80 563.94 431.03
  C 568.04 441.29 573.26 450.86 577.61 460.96
  C 578.52 463.08 587.82 482.85 588.23 483.00
  A 0.54 0.53 -0.9 0 1 588.57 483.32
  Q 590.81 489.06 593.80 494.43
  C 595.84 498.09 597.35 502.39 599.70 506.16
  C 601.90 509.68 603.28 513.76 605.82 517.22
  C 606.30 517.88 609.06 523.74 609.04 524.76
  A 1.37 1.33 -64.7 0 0 609.34 525.64
  C 610.38 526.97 611.26 528.26 612.74 529.25
  Q 616.94 532.06 618.30 537.00
  Z"
/>
<path fill="#865594" d="
  M 512.46 389.75
  Q 511.19 391.75 513.24 392.65
  A 1.27 1.27 0.0 0 1 513.90 393.31
  C 516.41 399.01 520.03 404.93 522.51 410.81
  C 527.13 421.78 535.31 434.48 538.39 441.33
  C 541.47 448.17 545.93 455.55 548.78 461.13
  C 551.02 465.51 553.17 469.79 555.70 474.09
  Q 568.67 496.13 572.21 503.52
  Q 575.76 510.93 579.11 514.93
  C 584.08 520.88 588.61 526.39 591.29 532.51
  A 0.33 0.33 0.0 0 1 591.00 532.97
  L 588.00 533.04
  L 549.50 510.79
  C 552.52 507.69 542.75 499.48 539.91 497.48
  Q 533.17 492.73 529.67 488.07
  Q 525.23 482.16 514.25 462.42
  Q 502.90 442.04 491.46 421.72
  Q 489.34 417.96 487.76 414.24
  Q 486.12 410.40 484.53 406.51
  L 512.46 389.75
  Z"
/>
<path fill="#6f649f" d="
  M 484.53 406.51
  Q 486.12 410.40 487.76 414.24
  Q 489.34 417.96 491.46 421.72
  Q 502.90 442.04 514.25 462.42
  Q 525.23 482.16 529.67 488.07
  Q 533.17 492.73 539.91 497.48
  C 542.75 499.48 552.52 507.69 549.50 510.79
  C 537.23 503.75 524.76 495.10 513.58 488.47
  Q 499.01 479.81 484.50 471.04
  C 486.87 468.54 481.52 465.55 480.02 463.97
  Q 478.23 462.08 476.27 460.83
  Q 471.49 457.76 467.71 453.51
  Q 466.21 451.83 464.18 450.68
  C 458.92 447.70 452.62 442.20 450.83 436.11
  C 450.31 434.34 449.44 433.38 447.75 432.96
  C 459.04 421.01 471.67 414.85 484.53 406.51
  Z"
/>
<path fill="#4f7dad" d="
  M 447.75 432.96
  C 449.44 433.38 450.31 434.34 450.83 436.11
  C 452.62 442.20 458.92 447.70 464.18 450.68
  Q 466.21 451.83 467.71 453.51
  Q 471.49 457.76 476.27 460.83
  Q 478.23 462.08 480.02 463.97
  C 481.52 465.55 486.87 468.54 484.50 471.04
  Q 468.86 462.05 452.77 453.91
  C 449.47 452.24 446.09 449.97 442.67 448.16
  Q 441.97 439.46 447.75 432.96
  Z"
/>
<path fill="#f3464a" d="
  M 768.21 441.16
  Q 769.07 449.36 769.11 452.19
  Q 769.91 504.35 769.40 533.56
  Q 768.55 581.66 768.65 592.56
  Q 768.71 600.04 767.04 606.26
  Q 766.26 607.03 765.84 607.98
  A 0.40 0.39 15.6 0 1 765.42 608.21
  L 762.72 607.88
  A 1.19 1.18 3.6 0 1 761.68 606.71
  Q 761.66 603.81 758.74 603.39
  A 0.54 0.53 5.8 0 1 758.28 602.83
  L 758.42 600.93
  A 0.86 0.85 17.4 0 0 758.00 600.13
  Q 752.44 596.91 748.66 591.79
  C 746.90 589.41 744.36 587.40 743.05 585.45
  C 738.35 578.48 732.74 572.62 727.60 566.04
  C 724.80 562.47 721.40 559.81 718.38 556.41
  C 715.16 552.79 708.99 546.79 704.53 544.97
  Q 704.03 544.77 703.69 544.35
  Q 702.78 543.18 701.38 542.72
  Q 701.17 542.66 701.34 542.52
  L 701.57 542.33
  Q 702.42 541.65 701.33 542.20
  Q 700.66 542.53 700.04 542.00
  L 735.50 484.93
  A 0.35 0.35 0.0 0 0 735.28 484.40
  L 720.79 481.25
  Q 721.02 479.90 719.75 479.53
  A 1.13 1.12 -53.4 0 0 718.83 479.67
  C 693.40 495.81 673.52 506.96 650.88 520.64
  C 650.27 521.01 649.85 521.60 649.25 522.04
  Q 647.63 521.87 647.50 520.29
  L 648.54 519.50
  C 655.38 516.19 663.40 510.69 667.93 507.95
  Q 688.98 495.19 708.59 480.85
  Q 711.49 479.28 713.77 477.52
  Q 739.54 457.63 768.21 441.16
  Z"
/>
<path fill="#ee325f" d="
  M 484.50 471.04
  Q 499.01 479.81 513.58 488.47
  C 524.76 495.10 537.23 503.75 549.50 510.79
  L 588.00 533.04
  L 606.17 543.28
  A 1.68 1.67 -49.7 0 0 608.05 543.12
  Q 612.47 539.55 618.30 537.00
  L 647.50 520.29
  Q 647.63 521.87 649.25 522.04
  L 643.75 525.52
  A 1.39 1.38 -56.9 0 1 642.82 525.72
  Q 642.25 525.64 642.25 526.08
  A 0.77 0.76 75.0 0 1 641.88 526.74
  L 633.50 531.96
  Q 623.09 538.52 612.53 544.83
  C 610.73 545.91 607.87 545.49 608.54 549.00
  C 608.51 589.96 608.88 630.98 608.22 671.93
  Q 608.00 685.07 608.40 698.22
  C 608.43 698.99 608.14 699.37 607.50 699.71
  L 602.93 699.56
  A 1.55 1.55 0.0 0 1 601.43 698.00
  L 601.71 659.00
  L 602.07 548.43
  Q 602.07 546.06 600.08 544.77
  Q 582.47 533.35 564.00 523.54
  L 544.04 512.00
  Q 507.61 490.53 471.96 467.78
  C 466.76 464.46 456.43 458.22 448.81 455.33
  Q 448.45 455.19 445.57 453.61
  Q 443.83 452.66 441.79 452.95
  Q 441.65 450.70 442.67 448.16
  C 446.09 449.97 449.47 452.24 452.77 453.91
  Q 468.86 462.05 484.50 471.04
  Z"
/>
<path fill="#1ab3c3" d="
  M 544.04 512.00
  L 542.59 514.38
  A 0.68 0.67 22.9 0 1 541.84 514.68
  C 534.25 512.61 526.62 507.55 520.25 503.04
  Q 506.53 494.15 492.25 486.21
  L 473.75 474.21
  Q 471.49 471.97 468.47 471.06
  A 1.87 1.79 -11.5 0 1 467.63 470.53
  Q 465.20 467.82 461.61 467.26
  Q 459.48 466.93 458.59 468.89
  C 457.38 471.56 458.18 473.81 459.65 476.57
  C 461.88 480.75 463.02 485.60 464.67 489.33
  C 469.19 499.53 474.55 507.50 478.04 517.24
  Q 483.23 531.73 488.88 546.05
  Q 490.05 548.99 491.05 551.98
  Q 497.34 570.80 503.88 589.54
  C 505.93 595.41 508.63 601.22 510.41 606.93
  Q 513.94 618.28 517.76 629.51
  Q 518.83 632.65 520.22 637.94
  C 521.81 643.98 523.96 649.44 525.57 655.83
  Q 527.58 663.83 531.37 671.22
  A 1.22 1.17 -57.0 0 1 531.50 671.91
  L 531.46 672.25
  Q 527.16 668.98 522.41 666.44
  C 520.59 665.48 519.18 664.01 517.33 662.97
  C 513.46 660.79 510.35 658.55 506.97 656.11
  C 504.67 654.45 501.36 653.26 498.97 650.93
  C 497.63 649.63 496.08 648.97 494.88 647.32
  C 492.62 644.22 490.20 642.01 488.44 638.77
  C 486.54 635.28 486.09 630.26 484.24 626.04
  C 482.06 621.04 480.59 615.45 478.59 610.83
  Q 468.31 587.19 459.56 562.94
  Q 458.86 561.00 458.23 558.20
  C 457.35 554.27 455.40 550.72 454.45 546.76
  C 452.70 539.51 450.07 532.70 448.32 525.45
  Q 448.30 525.37 446.65 520.24
  C 445.45 516.48 445.99 512.47 444.45 508.69
  C 442.77 504.59 442.40 501.45 441.54 497.50
  L 441.79 452.95
  Q 443.83 452.66 445.57 453.61
  Q 448.45 455.19 448.81 455.33
  C 456.43 458.22 466.76 464.46 471.96 467.78
  Q 507.61 490.53 544.04 512.00
  Z"
/>
<path fill="#2b9fbd" d="
  M 473.75 474.21
  C 469.54 477.52 476.69 486.42 479.64 490.09
  A 1.65 1.63 -67.7 0 1 480.00 490.96
  Q 480.12 492.15 481.12 492.81
  Q 481.54 493.08 481.81 493.50
  C 485.83 499.88 489.91 505.75 492.65 512.89
  C 494.43 517.53 496.38 522.04 497.87 526.79
  C 498.55 528.94 500.08 531.15 500.69 532.89
  Q 505.89 547.93 511.30 562.89
  C 512.04 564.93 512.47 567.97 513.87 570.42
  C 514.72 571.92 514.83 573.63 515.57 575.14
  Q 516.87 577.79 517.10 578.54
  Q 521.02 590.77 525.32 602.87
  C 525.97 604.72 526.10 607.08 527.20 609.16
  C 527.78 610.25 527.25 611.21 527.86 612.33
  Q 530.48 617.16 530.95 619.01
  C 531.93 622.86 533.78 626.70 534.80 630.13
  Q 538.26 641.79 542.58 653.16
  C 543.44 655.40 543.56 658.02 544.24 660.00
  Q 549.02 674.06 553.50 688.25
  L 541.96 681.25
  L 541.61 678.88
  A 0.98 0.98 0.0 0 0 541.07 678.13
  Q 535.98 675.64 531.46 672.25
  L 531.50 671.91
  A 1.22 1.17 -57.0 0 0 531.37 671.22
  Q 527.58 663.83 525.57 655.83
  C 523.96 649.44 521.81 643.98 520.22 637.94
  Q 518.83 632.65 517.76 629.51
  Q 513.94 618.28 510.41 606.93
  C 508.63 601.22 505.93 595.41 503.88 589.54
  Q 497.34 570.80 491.05 551.98
  Q 490.05 548.99 488.88 546.05
  Q 483.23 531.73 478.04 517.24
  C 474.55 507.50 469.19 499.53 464.67 489.33
  C 463.02 485.60 461.88 480.75 459.65 476.57
  C 458.18 473.81 457.38 471.56 458.59 468.89
  Q 459.48 466.93 461.61 467.26
  Q 465.20 467.82 467.63 470.53
  A 1.87 1.79 -11.5 0 0 468.47 471.06
  Q 471.49 471.97 473.75 474.21
  Z"
/>
<path fill="#3991b7" d="
  M 473.75 474.21
  L 492.25 486.21
  Q 490.53 488.82 492.51 491.25
  C 516.22 520.39 525.95 562.42 539.77 598.49
  Q 547.43 618.48 553.28 639.08
  C 555.80 647.96 559.16 658.01 561.61 667.65
  C 563.00 673.15 565.75 678.95 567.12 684.92
  C 567.80 687.86 569.39 691.78 569.57 695.49
  A 1.39 1.35 63.2 0 1 569.29 696.38
  L 568.46 697.50
  L 553.50 688.25
  Q 549.02 674.06 544.24 660.00
  C 543.56 658.02 543.44 655.40 542.58 653.16
  Q 538.26 641.79 534.80 630.13
  C 533.78 626.70 531.93 622.86 530.95 619.01
  Q 530.48 617.16 527.86 612.33
  C 527.25 611.21 527.78 610.25 527.20 609.16
  C 526.10 607.08 525.97 604.72 525.32 602.87
  Q 521.02 590.77 517.10 578.54
  Q 516.87 577.79 515.57 575.14
  C 514.83 573.63 514.72 571.92 513.87 570.42
  C 512.47 567.97 512.04 564.93 511.30 562.89
  Q 505.89 547.93 500.69 532.89
  C 500.08 531.15 498.55 528.94 497.87 526.79
  C 496.38 522.04 494.43 517.53 492.65 512.89
  C 489.91 505.75 485.83 499.88 481.81 493.50
  Q 481.54 493.08 481.12 492.81
  Q 480.12 492.15 480.00 490.96
  A 1.65 1.63 -67.7 0 0 479.64 490.09
  C 476.69 486.42 469.54 477.52 473.75 474.21
  Z"
/>
<path fill="#e9296a" d="
  M 720.79 481.25
  Q 702.54 510.30 683.98 539.16
  C 672.48 557.03 661.81 575.48 650.96 593.75
  Q 647.90 591.64 648.00 587.99
  C 648.26 578.86 647.48 573.32 645.14 562.55
  C 644.47 559.41 644.45 555.55 643.40 552.00
  C 641.84 546.74 642.06 541.47 641.68 536.12
  C 641.43 532.59 639.35 530.54 635.73 531.62
  Q 634.63 531.95 633.50 531.96
  L 641.88 526.74
  A 0.77 0.76 75.0 0 0 642.25 526.08
  Q 642.25 525.64 642.82 525.72
  A 1.39 1.38 -56.9 0 0 643.75 525.52
  L 649.25 522.04
  C 649.85 521.60 650.27 521.01 650.88 520.64
  C 673.52 506.96 693.40 495.81 718.83 479.67
  A 1.13 1.12 -53.4 0 1 719.75 479.53
  Q 721.02 479.90 720.79 481.25
  Z"
/>
<path fill="#020f19" d="
  M 720.79 481.25
  L 735.28 484.40
  A 0.35 0.35 0.0 0 1 735.50 484.93
  L 700.04 542.00
  L 665.54 598.50
  Q 658.11 610.95 650.65 623.49
  C 645.68 631.83 633.04 625.23 638.39 615.91
  Q 644.73 604.86 650.96 593.75
  C 661.81 575.48 672.48 557.03 683.98 539.16
  Q 702.54 510.30 720.79 481.25
  Z"
/>
<path fill="#4f7dad" d="
  M 492.25 486.21
  Q 506.53 494.15 520.25 503.04
  C 515.67 507.05 521.19 510.21 523.05 513.21
  C 525.95 517.91 529.43 522.14 531.66 527.01
  C 545.59 557.37 558.87 595.34 568.49 626.06
  C 571.29 635.00 573.96 645.38 576.63 655.08
  C 579.49 665.42 581.89 677.22 584.84 688.24
  C 585.99 692.49 590.11 705.96 587.21 709.00
  L 568.46 697.50
  L 569.29 696.38
  A 1.39 1.35 63.2 0 0 569.57 695.49
  C 569.39 691.78 567.80 687.86 567.12 684.92
  C 565.75 678.95 563.00 673.15 561.61 667.65
  C 559.16 658.01 555.80 647.96 553.28 639.08
  Q 547.43 618.48 539.77 598.49
  C 525.95 562.42 516.22 520.39 492.51 491.25
  Q 490.53 488.82 492.25 486.21
  Z"
/>
<path fill="#04cbc8" d="
  M 441.54 497.50
  C 442.40 501.45 442.77 504.59 444.45 508.69
  C 445.99 512.47 445.45 516.48 446.65 520.24
  Q 448.30 525.37 448.32 525.45
  C 450.07 532.70 452.70 539.51 454.45 546.76
  C 455.40 550.72 457.35 554.27 458.23 558.20
  Q 458.86 561.00 459.56 562.94
  Q 468.31 587.19 478.59 610.83
  C 480.59 615.45 482.06 621.04 484.24 626.04
  C 486.09 630.26 486.54 635.28 488.44 638.77
  C 490.20 642.01 492.62 644.22 494.88 647.32
  C 496.08 648.97 497.63 649.63 498.97 650.93
  C 501.36 653.26 504.67 654.45 506.97 656.11
  C 510.35 658.55 513.46 660.79 517.33 662.97
  C 519.18 664.01 520.59 665.48 522.41 666.44
  Q 527.16 668.98 531.46 672.25
  Q 535.98 675.64 541.07 678.13
  A 0.98 0.98 0.0 0 1 541.61 678.88
  L 541.96 681.25
  Q 504.06 657.67 466.26 633.96
  C 456.70 627.96 442.77 615.44 442.44 603.47
  C 442.27 597.55 441.58 590.88 441.54 585.94
  Q 441.38 564.57 441.54 497.50
  Z"
/>
<path fill="#626da5" d="
  M 520.25 503.04
  C 526.62 507.55 534.25 512.61 541.84 514.68
  A 0.68 0.67 22.9 0 0 542.59 514.38
  L 544.04 512.00
  L 564.00 523.54
  Q 563.43 525.25 564.82 525.83
  A 0.50 0.50 0.0 0 1 565.03 526.60
  L 563.97 528.01
  A 1.82 1.82 0.0 0 0 563.62 528.95
  Q 563.23 533.96 565.74 540.05
  C 566.48 541.86 571.80 555.22 572.68 555.57
  A 1.15 1.12 89.7 0 1 573.30 556.20
  Q 574.43 559.05 575.77 561.81
  C 576.31 562.92 575.75 563.97 576.28 565.21
  Q 579.52 572.81 582.33 580.59
  C 583.73 584.48 585.87 588.24 587.48 592.22
  Q 589.37 596.91 591.00 600.09
  C 594.34 606.62 596.11 612.52 598.23 618.94
  C 600.31 625.28 599.47 632.00 600.21 638.60
  C 600.57 641.87 599.10 644.14 600.24 647.79
  A 1.15 1.14 6.7 0 0 600.78 648.47
  C 601.36 648.81 601.37 656.77 601.71 659.00
  L 601.43 698.00
  A 1.55 1.55 0.0 0 0 602.93 699.56
  L 607.50 699.71
  Q 608.45 701.34 608.47 705.00
  Q 608.50 710.64 612.98 715.37
  Q 610.34 716.50 608.54 718.75
  Q 607.13 717.90 605.69 719.00
  L 602.94 719.00
  L 601.54 717.34
  Q 601.22 716.96 600.80 716.72
  L 587.21 709.00
  C 590.11 705.96 585.99 692.49 584.84 688.24
  C 581.89 677.22 579.49 665.42 576.63 655.08
  C 573.96 645.38 571.29 635.00 568.49 626.06
  C 558.87 595.34 545.59 557.37 531.66 527.01
  C 529.43 522.14 525.95 517.91 523.05 513.21
  C 521.19 510.21 515.67 507.05 520.25 503.04
  Z"
/>
<path fill="#865594" d="
  M 564.00 523.54
  Q 582.47 533.35 600.08 544.77
  Q 602.07 546.06 602.07 548.43
  L 601.71 659.00
  C 601.37 656.77 601.36 648.81 600.78 648.47
  A 1.15 1.14 6.7 0 1 600.24 647.79
  C 599.10 644.14 600.57 641.87 600.21 638.60
  C 599.47 632.00 600.31 625.28 598.23 618.94
  C 596.11 612.52 594.34 606.62 591.00 600.09
  Q 589.37 596.91 587.48 592.22
  C 585.87 588.24 583.73 584.48 582.33 580.59
  Q 579.52 572.81 576.28 565.21
  C 575.75 563.97 576.31 562.92 575.77 561.81
  Q 574.43 559.05 573.30 556.20
  A 1.15 1.12 89.7 0 0 572.68 555.57
  C 571.80 555.22 566.48 541.86 565.74 540.05
  Q 563.23 533.96 563.62 528.95
  A 1.82 1.82 0.0 0 1 563.97 528.01
  L 565.03 526.60
  A 0.50 0.50 0.0 0 0 564.82 525.83
  Q 563.43 525.25 564.00 523.54
  Z"
/>
<path fill="#c72e79" d="
  M 650.96 593.75
  Q 644.73 604.86 638.39 615.91
  C 633.04 625.23 645.68 631.83 650.65 623.49
  Q 658.11 610.95 665.54 598.50
  Q 670.83 601.42 672.59 606.93
  C 673.85 610.90 675.79 614.12 676.65 616.83
  C 678.83 623.77 681.55 630.69 682.94 637.73
  C 683.76 641.82 684.18 646.76 685.76 650.59
  C 688.67 657.62 683.20 666.64 678.12 671.15
  A 1.62 1.54 77.3 0 0 677.64 671.95
  C 676.60 676.40 672.38 676.65 669.67 680.07
  C 668.31 681.80 665.55 682.32 664.27 683.20
  Q 662.88 684.15 661.61 685.29
  A 1.05 1.04 -22.0 0 0 661.27 686.08
  L 661.29 687.50
  C 655.64 691.12 649.13 693.65 643.88 696.97
  Q 638.48 700.40 633.04 703.75
  Q 634.21 697.64 635.31 691.51
  C 635.43 690.85 634.88 689.40 634.89 688.41
  C 634.91 669.62 631.23 649.72 626.41 630.85
  Q 625.62 627.73 625.44 624.02
  Q 625.17 618.27 623.75 615.24
  Q 622.77 613.15 622.64 611.48
  C 622.32 607.43 621.33 603.97 620.12 600.00
  C 618.57 594.92 618.84 590.19 617.09 584.54
  Q 616.02 581.11 615.79 577.78
  Q 615.21 569.49 614.19 561.22
  C 613.66 557.02 613.99 551.94 613.07 547.22
  A 0.86 0.85 2.9 0 0 612.48 546.57
  Q 609.42 545.67 608.54 549.00
  C 607.87 545.49 610.73 545.91 612.53 544.83
  Q 623.09 538.52 633.50 531.96
  Q 634.63 531.95 635.73 531.62
  C 639.35 530.54 641.43 532.59 641.68 536.12
  C 642.06 541.47 641.84 546.74 643.40 552.00
  C 644.45 555.55 644.47 559.41 645.14 562.55
  C 647.48 573.32 648.26 578.86 648.00 587.99
  Q 647.90 591.64 650.96 593.75
  Z"
/>
<path fill="#e9296a" d="
  M 700.04 542.00
  Q 700.66 542.53 701.33 542.20
  Q 702.42 541.65 701.57 542.33
  L 701.34 542.52
  Q 701.17 542.66 701.38 542.72
  Q 702.78 543.18 703.69 544.35
  Q 704.03 544.77 704.53 544.97
  C 708.99 546.79 715.16 552.79 718.38 556.41
  C 721.40 559.81 724.80 562.47 727.60 566.04
  C 732.74 572.62 738.35 578.48 743.05 585.45
  C 744.36 587.40 746.90 589.41 748.66 591.79
  Q 752.44 596.91 758.00 600.13
  A 0.86 0.85 17.4 0 1 758.42 600.93
  L 758.28 602.83
  A 0.54 0.53 5.8 0 0 758.74 603.39
  Q 761.66 603.81 761.68 606.71
  A 1.19 1.18 3.6 0 0 762.72 607.88
  L 765.42 608.21
  A 0.40 0.39 15.6 0 0 765.84 607.98
  Q 766.26 607.03 767.04 606.26
  C 765.55 613.05 764.59 619.65 758.63 624.11
  Q 739.84 638.15 719.01 648.96
  Q 716.20 650.42 710.29 655.23
  C 702.12 661.87 693.24 667.34 684.22 672.63
  C 676.46 677.18 669.59 683.20 661.29 687.50
  L 661.27 686.08
  A 1.05 1.04 -22.0 0 1 661.61 685.29
  Q 662.88 684.15 664.27 683.20
  C 665.55 682.32 668.31 681.80 669.67 680.07
  C 672.38 676.65 676.60 676.40 677.64 671.95
  A 1.62 1.54 77.3 0 1 678.12 671.15
  C 683.20 666.64 688.67 657.62 685.76 650.59
  C 684.18 646.76 683.76 641.82 682.94 637.73
  C 681.55 630.69 678.83 623.77 676.65 616.83
  C 675.79 614.12 673.85 610.90 672.59 606.93
  Q 670.83 601.42 665.54 598.50
  L 700.04 542.00
  Z"
/>
<path fill="#ac3d83" d="
  M 633.04 703.75
  Q 623.39 710.27 612.98 715.37
  Q 608.50 710.64 608.47 705.00
  Q 608.45 701.34 607.50 699.71
  C 608.14 699.37 608.43 698.99 608.40 698.22
  Q 608.00 685.07 608.22 671.93
  C 608.88 630.98 608.51 589.96 608.54 549.00
  Q 609.42 545.67 612.48 546.57
  A 0.86 0.85 2.9 0 1 613.07 547.22
  C 613.99 551.94 613.66 557.02 614.19 561.22
  Q 615.21 569.49 615.79 577.78
  Q 616.02 581.11 617.09 584.54
  C 618.84 590.19 618.57 594.92 620.12 600.00
  C 621.33 603.97 622.32 607.43 622.64 611.48
  Q 622.77 613.15 623.75 615.24
  Q 625.17 618.27 625.44 624.02
  Q 625.62 627.73 626.41 630.85
  C 631.23 649.72 634.91 669.62 634.89 688.41
  C 634.88 689.40 635.43 690.85 635.31 691.51
  Q 634.21 697.64 633.04 703.75
  Z"
/>
<path fill="#020f19" d="
  M 608.54 718.75
  L 608.44 719.00
  L 605.69 719.00
  Q 607.13 717.90 608.54 718.75
  Z"
/>
</g>
</svg>
